<?xml version="1.0" encoding="UTF-8" standalone="no"?>
<!DOCTYPE svg PUBLIC "-//W3C//DTD SVG 1.1//EN" "http://www.w3.org/Graphics/SVG/1.1/DTD/svg11.dtd">
<svg xmlns="http://www.w3.org/2000/svg" version="1.1" viewBox="0 0 512 512">
<path fill="#000000" d="M 132.56,0.00 Q 145.06,0.00 157.56,0.00 Q 191.42,2.23 214.50,25.75 Q 232.85,44.46 237.49,70.08 Q 238.75,77.04 238.92,90.00 Q 239.13,106.21 238.99,123.35 A 1.61,1.60 16.6 0 0 239.73,124.72 Q 253.82,133.82 255.64,150.26 Q 256.64,159.33 253.25,167.00 Q 246.75,181.69 231.05,186.42 A 0.79,0.76 -5.5 0 0 230.50,187.06 Q 224.95,228.95 188.49,252.46 A 1.63,1.56 -17.2 0 0 187.75,253.79 L 187.80,263.98 A 1.15,1.12 3.1 0 0 188.83,265.10 Q 219.58,268.35 243.30,285.17 Q 251.29,290.84 258.45,298.18 Q 283.78,324.11 288.97,360.30 Q 289.99,367.41 290.12,380.24 Q 290.39,406.51 290.24,433.48 A 1.70,1.52 -77.7 0 0 291.07,434.94 L 297.97,438.49 A 0.65,0.58 -57.3 0 0 298.74,438.28 Q 321.41,407.55 344.06,376.81 Q 344.88,375.71 347.28,374.01 Q 349.13,372.70 350.24,371.03 Q 405.70,286.72 461.06,202.34 Q 466.83,193.55 469.73,191.26 Q 476.24,186.11 484.65,188.59 Q 488.25,189.66 494.67,194.08 Q 499.41,197.35 504.17,200.59 Q 511.12,205.33 512.00,213.81 Q 512.00,215.19 512.00,216.56 Q 511.17,221.31 509.94,223.19 Q 452.13,311.27 394.27,399.32 Q 393.10,401.09 392.62,403.53 Q 391.84,407.51 390.44,409.69 Q 382.84,421.45 343.88,479.63 Q 334.42,493.74 334.24,493.97 Q 328.53,500.92 320.47,504.89 Q 314.52,507.82 303.55,509.39 Q 288.34,511.58 272.94,512.00 Q 152.69,512.00 32.44,512.00 Q 3.98,508.36 0.00,479.94 Q 0.00,425.56 0.00,371.19 Q 1.06,351.85 7.31,336.06 Q 23.44,295.36 62.65,275.99 Q 81.16,266.85 101.74,265.00 A 0.84,0.83 -2.6 0 0 102.50,264.17 L 102.50,253.87 A 1.69,1.67 -74.3 0 0 101.71,252.44 Q 65.43,229.63 60.03,186.95 A 0.85,0.84 -85.9 0 0 59.42,186.24 Q 46.99,182.81 40.18,172.82 Q 35.70,166.24 34.51,158.52 Q 33.27,150.50 36.00,142.75 Q 39.93,131.57 50.43,124.66 A 1.84,1.82 73.5 0 0 51.25,123.13 Q 51.25,112.35 51.25,101.75 Q 51.25,83.03 51.32,81.75 Q 53.40,41.86 85.06,17.31 Q 105.14,1.75 132.56,0.00 ZM 149.44,85.34 Q 185.36,85.67 221.09,91.81 A 0.71,0.71 -3.8 0 0 221.89,90.90 Q 221.63,90.03 221.69,88.75 Q 222.35,73.46 216.82,59.78 Q 213.16,50.70 206.69,42.64 Q 191.07,23.15 166.00,18.30 Q 160.49,17.23 151.93,17.05 Q 144.84,16.89 137.75,16.94 Q 116.94,17.07 100.13,27.68 Q 91.69,33.00 85.06,40.69 Q 67.13,61.48 68.28,91.26 A 0.57,0.57 -5.7 0 0 68.95,91.80 Q 109.05,84.97 149.44,85.34 ZM 220.82,109.21 Q 144.16,95.65 69.06,109.22 A 0.65,0.64 -3.5 0 0 68.53,109.81 Q 67.71,123.56 68.25,127.25 Q 69.37,134.83 75.31,136.00 Q 77.90,136.50 85.06,134.83 Q 146.23,120.60 207.33,135.40 Q 211.98,136.52 214.26,136.17 Q 218.46,135.51 220.41,131.96 Q 221.73,129.57 221.71,123.81 Q 221.68,117.08 221.92,110.57 A 1.33,1.32 6.2 0 0 220.82,109.21 ZM 219.64,173.23 Q 222.34,171.07 224.56,170.56 Q 230.87,169.12 234.69,164.67 Q 238.49,160.25 238.81,154.44 Q 239.15,148.01 234.65,142.52 A 0.53,0.52 44.1 0 0 233.83,142.53 Q 226.12,152.74 214.10,153.42 Q 210.35,153.64 203.06,151.88 Q 146.61,138.24 89.81,151.27 Q 89.71,151.29 85.72,152.34 Q 68.19,156.94 56.42,142.76 A 0.76,0.76 43.9 0 0 55.23,142.78 Q 50.19,149.22 51.53,156.62 Q 52.35,161.16 55.35,164.65 Q 58.44,168.21 62.97,169.88 Q 68.13,171.78 68.80,172.20 Q 75.88,176.62 77.06,186.19 Q 81.24,220.07 109.02,237.21 Q 117.85,242.65 127.23,245.26 Q 142.74,249.56 158.55,246.34 Q 168.13,244.39 177.24,239.46 Q 205.26,224.30 212.17,191.73 Q 212.19,191.63 212.91,185.72 Q 213.47,181.15 215.93,177.29 Q 217.37,175.04 219.64,173.23 ZM 367.90,376.95 L 381.78,386.19 A 0.53,0.52 -56.5 0 0 382.50,386.04 L 494.41,215.73 A 0.54,0.52 -55.5 0 0 494.29,215.01 L 480.82,205.35 A 0.79,0.77 -55.6 0 0 479.72,205.57 L 367.64,375.69 A 0.91,0.91 -20.7 0 0 367.90,376.95 ZM 128.73,292.51 Q 134.46,297.32 141.46,298.35 Q 148.07,299.33 154.78,296.61 Q 165.64,292.20 169.34,280.72 Q 170.54,276.98 170.70,271.13 Q 170.82,266.50 170.73,261.39 A 0.69,0.69 81.3 0 0 169.85,260.74 Q 144.49,268.13 119.99,260.58 A 0.38,0.38 8.6 0 0 119.50,260.94 Q 119.50,267.00 119.53,272.75 Q 119.61,284.84 128.73,292.51 ZM 156.79,334.45 Q 171.08,338.44 180.23,351.37 A 0.92,0.91 -40.8 0 0 181.64,351.47 Q 196.24,336.18 196.24,314.50 Q 196.25,299.25 196.25,284.43 A 1.18,1.18 -82.7 0 0 195.37,283.29 Q 190.87,282.12 187.26,282.23 A 0.68,0.67 -83.2 0 0 186.62,282.74 Q 181.38,302.65 163.69,311.19 Q 148.48,318.52 133.75,314.00 Q 110.62,306.90 103.57,282.87 A 1.10,1.10 -11.6 0 0 102.37,282.08 L 94.70,283.02 A 0.79,0.78 -3.3 0 0 94.00,283.80 Q 94.00,296.96 94.00,309.60 Q 94.00,321.96 95.44,327.78 Q 98.74,341.06 108.76,351.66 A 0.72,0.72 -49.0 0 0 109.87,351.58 Q 120.46,336.81 136.98,333.66 Q 147.05,331.74 156.79,334.45 ZM 256.44,416.80 Q 264.08,420.79 272.37,425.17 A 0.43,0.42 14.3 0 0 273.00,424.80 Q 273.00,400.13 272.97,376.00 Q 272.94,347.70 257.55,324.20 Q 241.31,299.40 213.77,288.50 A 0.33,0.33 -78.8 0 0 213.31,288.81 Q 213.24,298.78 213.24,308.75 Q 213.23,322.27 211.97,328.66 Q 207.35,352.09 188.07,368.58 A 2.00,1.99 66.7 0 0 187.39,370.30 Q 187.72,373.36 187.65,376.77 Q 187.58,380.03 186.90,383.18 Q 181.24,409.48 154.12,417.18 A 0.85,0.84 82.4 0 0 153.50,418.00 Q 153.50,422.61 153.50,427.32 Q 153.50,435.70 153.40,436.66 Q 152.25,447.39 142.33,451.06 Q 139.12,452.25 133.50,452.25 Q 129.01,452.25 124.52,452.25 Q 116.25,452.25 112.67,450.76 Q 106.57,448.23 103.90,441.97 Q 102.57,438.85 102.53,433.20 Q 102.34,401.38 102.68,369.56 A 1.01,1.01 -70.3 0 0 102.30,368.75 Q 83.78,353.47 78.60,330.87 Q 76.98,323.82 76.80,311.01 Q 76.64,300.26 76.76,288.86 A 0.44,0.44 -11.0 0 0 76.15,288.45 Q 37.40,305.00 23.02,343.64 Q 17.00,359.79 17.00,377.75 Q 17.00,427.12 17.00,476.50 Q 17.00,489.02 27.74,493.59 Q 30.09,494.58 32.90,494.81 Q 35.22,495.00 38.25,495.00 Q 111.25,495.00 183.89,495.00 Q 185.17,495.00 184.16,494.21 Q 162.85,477.53 171.23,451.54 Q 174.13,442.53 177.09,433.54 Q 181.21,421.04 184.47,416.21 Q 192.82,403.86 208.31,400.81 Q 217.67,398.97 226.77,402.03 Q 229.45,402.93 241.70,409.19 Q 249.09,412.96 256.44,416.80 ZM 154.60,351.67 Q 145.36,347.62 135.00,352.00 Q 124.47,356.46 121.04,366.68 Q 119.50,371.25 119.50,382.50 Q 119.50,408.51 119.50,434.58 A 0.67,0.67 -89.8 0 0 120.17,435.25 L 135.48,435.25 A 1.02,1.02 89.7 0 0 136.50,434.22 Q 136.46,423.15 136.53,412.94 Q 136.57,407.66 137.77,405.40 Q 139.90,401.42 144.97,401.03 Q 148.48,400.76 148.51,400.75 Q 160.24,398.82 166.26,389.63 Q 169.94,384.02 170.51,377.28 Q 171.12,370.09 167.91,363.99 Q 163.49,355.57 154.60,351.67 ZM 259.19,494.56 Q 279.77,495.56 298.70,492.94 Q 306.53,491.85 307.79,491.55 Q 312.44,490.41 316.28,487.66 Q 319.49,485.35 323.55,479.29 Q 349.14,441.10 374.62,402.72 A 0.66,0.65 34.2 0 0 374.44,401.81 L 356.52,389.93 A 0.87,0.87 -55.1 0 0 355.34,390.14 Q 331.38,422.86 307.69,454.94 Q 304.88,458.74 300.57,458.35 Q 298.42,458.15 293.84,455.73 Q 259.01,437.29 223.86,419.47 Q 217.81,416.40 212.00,417.50 Q 199.05,419.94 195.04,432.93 Q 191.73,443.64 188.32,454.32 Q 185.90,461.89 186.06,465.93 Q 186.35,473.39 191.35,478.15 Q 195.23,481.84 206.69,485.41 Q 231.79,493.23 259.19,494.56 Z"/>
</svg>
