<?xml version="1.0" encoding="UTF-8" standalone="no"?>
<!DOCTYPE svg PUBLIC "-//W3C//DTD SVG 1.1//EN" "http://www.w3.org/Graphics/SVG/1.1/DTD/svg11.dtd">
<svg xmlns="http://www.w3.org/2000/svg" version="1.1" viewBox="0 0 512 512">
<path fill="#000000" d="M 512.00,390.06 Q 512.00,393.06 512.00,396.06 Q 510.06,414.78 499.20,429.43 Q 495.34,434.65 489.64,440.46 Q 484.51,445.68 478.66,450.14 Q 461.22,463.44 441.20,472.39 Q 406.37,487.97 369.00,495.74 Q 316.94,506.56 263.75,507.19 Q 216.98,507.74 170.74,500.80 Q 135.84,495.56 102.26,484.71 Q 89.11,480.45 73.56,473.69 Q 51.24,463.98 32.91,449.85 Q 25.56,444.19 17.44,435.06 Q 2.22,417.95 0.00,395.94 Q 0.00,392.81 0.00,389.69 Q 1.92,369.85 14.30,354.31 Q 21.39,345.42 30.20,338.23 Q 48.36,323.42 69.69,313.69 Q 90.77,304.07 112.82,297.55 A 0.95,0.94 -8.3 0 0 113.50,296.65 Q 113.50,155.88 113.48,15.75 Q 113.48,12.18 115.25,9.45 Q 117.00,6.75 120.07,5.54 Q 124.52,3.78 129.00,6.50 Q 131.75,8.17 132.86,11.17 Q 133.50,12.92 133.50,16.92 Q 133.50,29.49 133.50,42.36 A 0.64,0.64 -14.7 0 0 134.46,42.92 Q 161.42,27.76 192.21,33.23 Q 214.49,37.20 231.67,51.86 Q 234.90,54.61 238.05,57.44 Q 242.29,61.27 244.54,62.90 Q 255.55,70.90 268.64,73.94 Q 278.30,76.18 288.50,75.38 Q 311.91,73.54 329.51,56.77 Q 334.79,51.74 341.00,54.75 Q 345.27,56.82 346.25,61.15 Q 346.50,62.26 346.50,68.88 Q 346.50,126.18 346.50,183.49 Q 346.50,190.43 346.26,191.47 Q 345.37,195.37 341.81,198.56 Q 319.10,218.99 290.24,221.44 Q 280.33,222.28 270.31,220.74 Q 243.27,216.61 223.69,197.56 Q 209.45,183.71 191.38,179.54 Q 181.62,177.28 171.51,178.11 Q 151.17,179.78 134.52,193.39 A 2.80,2.77 -19.9 0 0 133.50,195.54 L 133.56,291.23 A 0.68,0.68 -6.2 0 0 134.39,291.89 Q 148.97,288.62 163.10,286.30 Q 252.28,271.65 341.44,284.90 A 1.01,1.01 20.4 0 0 342.43,284.45 Q 352.77,268.29 370.03,262.56 Q 379.55,259.41 389.74,260.02 Q 408.26,261.13 421.56,274.19 Q 436.90,289.23 437.31,310.74 A 1.10,1.10 -79.0 0 0 437.98,311.74 Q 457.21,320.11 474.31,332.19 Q 483.38,338.59 492.26,347.74 Q 509.43,365.44 512.00,390.06 ZM 255.64,90.71 Q 237.06,84.58 224.31,71.94 Q 209.78,57.53 191.12,53.27 Q 181.32,51.03 171.25,51.92 Q 151.15,53.71 134.55,67.21 A 2.67,2.66 -19.5 0 0 133.56,69.28 L 133.50,168.77 A 0.47,0.47 -14.6 0 0 134.20,169.18 Q 163.53,153.04 195.29,159.95 Q 205.39,162.15 214.14,166.43 Q 226.80,172.61 237.19,182.81 Q 246.84,192.29 259.23,197.22 Q 268.42,200.89 278.65,201.58 Q 304.74,203.35 326.10,185.87 A 1.08,1.06 71.0 0 0 326.50,185.03 Q 326.50,136.50 326.43,88.50 Q 326.43,86.61 326.65,85.30 Q 326.93,83.72 325.52,84.49 Q 292.10,102.75 255.64,90.71 ZM 417.31,311.06 A 31.14 31.14 0.0 0 0 386.17,279.92 A 31.14 31.14 0.0 0 0 355.03,311.06 A 31.14 31.14 0.0 0 0 386.17,342.20 A 31.14 31.14 0.0 0 0 417.31,311.06 ZM 472.06,356.19 Q 455.14,341.37 433.79,331.84 A 0.69,0.69 24.8 0 0 432.89,332.17 Q 421.86,354.60 398.84,360.53 Q 389.13,363.02 379.04,361.57 Q 356.87,358.37 344.27,340.16 Q 338.71,332.14 336.59,323.43 Q 334.40,314.47 335.37,304.70 A 0.49,0.48 7.4 0 0 334.96,304.17 Q 295.08,298.39 254.75,298.60 Q 244.54,298.66 234.74,298.98 Q 183.82,300.66 134.08,312.46 A 0.76,0.75 -6.9 0 0 133.50,313.19 L 133.50,351.72 A 0.53,0.53 2.3 0 0 133.99,352.25 Q 150.10,353.67 164.68,360.58 Q 172.90,364.48 179.43,370.82 Q 184.82,376.07 187.42,382.81 Q 190.04,389.62 189.16,396.42 Q 188.24,403.50 183.83,409.58 Q 177.76,417.95 168.71,422.98 Q 157.27,429.32 144.64,431.86 Q 135.36,433.73 124.78,433.91 Q 105.14,434.24 86.58,426.89 Q 74.74,422.19 67.44,414.56 Q 51.41,397.82 61.33,379.55 Q 65.11,372.59 72.04,367.08 Q 78.57,361.87 86.46,358.66 Q 98.62,353.73 112.60,352.35 A 1.03,1.01 87.2 0 0 113.51,351.33 L 113.68,319.09 A 0.64,0.63 81.3 0 0 112.86,318.48 Q 90.21,325.50 69.75,336.00 Q 52.32,344.94 38.99,357.07 Q 32.99,362.53 29.26,367.62 Q 24.68,373.86 22.31,380.31 Q 16.65,395.76 24.81,410.94 Q 32.55,425.31 48.14,436.38 Q 67.34,450.02 89.29,458.66 Q 124.96,472.70 162.76,479.17 Q 221.41,489.22 280.77,486.54 Q 291.60,486.05 300.72,485.36 Q 340.97,482.30 383.81,471.56 Q 417.17,463.20 447.39,446.85 Q 455.73,442.34 466.31,434.31 Q 480.03,423.91 487.69,409.94 Q 492.86,400.50 491.84,389.95 Q 490.95,380.84 485.19,371.51 Q 480.03,363.16 472.06,356.19 ZM 83.69,402.31 Q 88.56,406.23 93.57,408.17 Q 123.75,419.83 153.95,408.20 Q 160.29,405.76 165.01,401.15 Q 168.52,397.71 169.19,394.50 Q 170.07,390.20 166.77,386.25 Q 163.99,382.93 160.26,380.74 Q 150.70,375.13 139.77,373.15 Q 125.17,370.50 110.49,372.68 Q 97.70,374.57 86.67,381.25 Q 82.81,383.58 80.31,386.56 Q 75.44,392.38 79.93,398.56 Q 81.20,400.31 83.69,402.31 Z"/>
</svg>
