<?xml version="1.0" encoding="UTF-8" standalone="no"?>
<!DOCTYPE svg PUBLIC "-//W3C//DTD SVG 1.1//EN" "http://www.w3.org/Graphics/SVG/1.1/DTD/svg11.dtd">
<svg xmlns="http://www.w3.org/2000/svg" version="1.1" viewBox="0 0 512 512">
<path fill="#000000" d="M 65.69,512.00 Q 46.94,512.00 28.19,512.00 Q 16.69,510.07 13.25,499.00 Q 12.59,496.88 12.67,491.79 Q 12.75,486.88 12.75,486.70 Q 12.75,261.97 12.75,37.25 Q 12.75,26.97 16.74,18.91 Q 20.89,10.54 28.88,5.53 Q 34.45,2.04 41.08,0.85 Q 47.50,-0.29 53.89,1.12 Q 68.38,4.32 77.10,18.39 A 2.00,1.99 71.4 0 0 78.97,19.32 Q 95.83,17.81 111.75,20.52 Q 132.14,24.00 151.16,32.12 Q 172.70,41.30 192.49,53.80 Q 221.85,72.35 249.02,94.00 Q 283.36,121.36 317.48,149.01 Q 344.25,170.71 372.96,189.78 Q 392.39,202.68 413.60,212.36 Q 431.52,220.54 449.75,224.25 Q 461.59,226.66 474.55,226.54 Q 474.67,226.54 479.43,226.28 Q 491.53,225.62 496.43,234.27 Q 500.69,241.79 498.17,252.16 Q 495.78,262.02 488.06,270.31 Q 438.40,323.69 368.75,342.25 Q 342.55,349.23 311.75,352.75 Q 280.25,356.34 248.75,360.00 Q 234.69,361.63 213.33,366.14 Q 135.08,382.65 81.40,441.44 A 1.31,1.28 66.8 0 0 81.06,442.32 Q 80.97,464.61 80.99,486.90 Q 81.00,498.11 79.42,501.91 Q 76.05,510.02 65.69,512.00 ZM 31.61,26.65 Q 30.11,29.64 29.99,33.00 Q 29.62,43.87 29.63,54.75 Q 29.75,273.75 29.75,493.98 A 1.02,1.02 0.3 0 0 30.77,495.00 L 63.13,495.00 A 0.87,0.87 90.0 0 0 64.00,494.13 Q 64.00,267.60 64.00,41.68 Q 64.00,32.26 63.59,30.35 Q 62.27,24.25 57.06,20.44 Q 48.57,14.23 38.65,19.48 Q 33.98,21.94 31.61,26.65 ZM 255.71,121.01 Q 226.77,97.39 195.92,76.34 Q 178.02,64.12 158.71,54.27 Q 139.20,44.32 117.90,39.20 Q 100.81,35.10 81.79,36.08 A 0.83,0.83 -1.5 0 0 81.00,36.91 L 81.06,416.43 Q 81.06,417.26 81.67,416.68 Q 138.63,362.25 215.75,348.25 Q 242.61,343.37 264.69,340.98 Q 279.24,339.41 279.29,339.40 Q 310.83,335.74 318.44,334.69 Q 345.32,330.96 368.00,324.50 Q 427.23,307.62 470.86,263.65 Q 478.10,256.35 478.91,255.15 Q 482.38,250.07 481.97,243.31 A 0.49,0.49 -4.0 0 0 481.44,242.85 Q 464.21,244.07 447.26,240.70 Q 427.60,236.80 409.26,228.73 Q 390.15,220.34 372.41,209.35 Q 354.43,198.21 339.06,186.94 Q 312.55,167.50 284.76,144.75 Q 270.24,132.87 255.71,121.01 Z"/>
<path fill="#000000" d="M 140.59,146.68 Q 131.32,156.45 123.24,167.23 Q 121.78,169.18 119.77,170.41 Q 117.78,171.63 115.39,171.75 Q 109.60,172.05 107.31,166.44 Q 105.90,162.97 107.42,159.78 Q 107.90,158.79 111.15,154.72 Q 127.19,134.61 143.69,117.94 Q 146.14,115.46 149.98,115.89 Q 154.69,116.41 156.63,119.89 Q 157.75,121.91 157.75,126.82 Q 157.79,210.14 157.69,293.46 Q 157.69,297.03 156.45,299.15 Q 153.25,304.59 146.95,302.72 Q 143.92,301.82 142.40,299.61 Q 140.75,297.22 140.74,294.00 Q 140.61,220.41 140.93,146.82 Q 140.94,146.31 140.59,146.68 Z"/>
<path fill="#000000" d="M 200.12,215.71 A 0.43,0.42 56.4 0 0 200.26,215.01 Q 185.90,201.19 183.75,181.25 Q 183.37,177.73 183.43,168.08 Q 183.48,157.50 183.82,154.93 Q 185.37,143.22 193.94,134.94 Q 206.08,123.21 223.69,125.81 Q 228.25,126.49 235.99,129.28 Q 243.03,131.83 247.61,134.48 Q 258.83,140.95 266.19,151.31 Q 276.74,166.17 277.34,184.49 Q 277.51,189.56 277.31,197.51 Q 277.13,204.81 275.75,210.50 Q 272.68,223.14 261.13,229.31 A 0.91,0.91 54.3 0 0 260.90,230.74 Q 274.77,245.50 276.91,264.71 Q 277.25,267.76 277.25,273.81 Q 277.25,278.36 277.25,282.91 Q 277.25,291.08 276.29,295.02 Q 274.71,301.49 270.94,306.19 Q 258.66,321.45 239.00,318.00 Q 228.85,316.22 218.54,312.16 Q 198.72,304.35 189.22,285.30 Q 183.15,273.14 183.38,259.50 Q 183.50,252.25 183.69,245.00 Q 184.11,228.99 195.89,218.38 Q 197.80,216.65 200.12,215.71 ZM 244.97,153.30 Q 233.29,143.54 218.00,142.50 Q 214.23,142.24 210.83,143.85 Q 200.85,148.56 200.50,159.75 Q 200.34,164.85 200.54,173.08 Q 200.75,181.40 202.17,186.26 Q 207.39,204.09 225.50,211.25 Q 231.04,213.44 237.69,215.02 Q 244.92,216.74 249.40,215.69 Q 259.70,213.28 260.04,200.49 Q 260.18,195.00 260.23,189.49 Q 260.29,182.33 259.65,178.54 Q 257.09,163.44 244.97,153.30 ZM 246.56,239.94 Q 235.98,230.30 221.86,228.26 Q 215.33,227.31 210.81,229.20 Q 205.05,231.62 202.30,237.36 Q 200.77,240.54 200.57,246.42 Q 200.05,261.07 200.75,265.25 Q 204.63,288.43 225.35,296.51 Q 228.13,297.59 234.14,299.50 Q 240.01,301.35 243.25,301.50 Q 256.58,302.11 259.56,290.94 Q 260.25,288.33 260.25,282.99 Q 260.25,278.99 260.25,274.99 Q 260.25,266.94 259.52,263.05 Q 256.97,249.41 246.56,239.94 Z"/>
</svg>
