<svg xmlns="http://www.w3.org/2000/svg" version="1.1" viewBox="0 0 512 512">
<path fill="#ffffff" d="   M 333.81 0.00   Q 338.06 0.00 342.31 0.00   Q 415.30 2.90 464.19 54.31   Q 509.72 102.20 512.00 170.31   Q 512.00 173.94 512.00 177.56   Q 509.74 245.94 463.31 294.56   Q 433.77 325.50 393.07 339.09   Q 383.72 342.21 373.75 344.22   Q 313.65 356.36 258.72 328.82   Q 252.88 325.89 251.57 324.81   Q 247.72 321.65 248.13 316.73   Q 248.57 311.43 252.69 308.64   Q 257.31 305.52 263.44 308.81   Q 298.92 327.88 338.26 327.82   Q 348.08 327.80 358.19 326.46   Q 410.50 319.49 447.19 282.44   Q 479.31 250.00 488.69 205.94   Q 494.18 180.15 490.36 152.77   Q 484.91 113.73 461.89 82.66   Q 456.06 74.80 448.95 67.42   Q 408.96 25.93 350.97 20.64   Q 341.01 19.73 331.00 20.25   Q 269.40 23.43 226.56 67.81   Q 207.14 87.93 196.08 114.40   Q 192.30 123.44 189.67 133.33   Q 173.85 192.72 202.75 247.75   Q 207.47 256.73 201.07 261.68   Q 197.65 264.34 193.77 263.96   Q 190.80 263.67 188.48 261.72   Q 186.94 260.43 185.22 257.24   Q 166.10 221.81 164.25 182.75   Q 161.57 125.93 192.38 78.79   Q 197.89 70.35 204.26 62.73   Q 228.12 34.16 261.31 17.81   Q 295.11 1.16 333.81 0.00   Z"/>
<circle fill="#ffffff" cx="413.33" cy="144.67" r="9.92"/>
<circle fill="#ffffff" cx="363.96" cy="199.64" r="9.93"/>
<circle fill="#ffffff" cx="429.53" cy="213.34" r="9.92"/>
<rect fill="#ffffff" x="-9.98" y="-90.21" transform="translate(76.86,297.89) rotate(45.0)" width="19.96" height="180.42" rx="9.90"/>
<circle fill="#ffffff" cx="305.73" cy="245.75" r="9.93"/>
<circle fill="#ffffff" cx="375.73" cy="263.86" r="9.92"/>
<circle fill="#ffffff" cx="222.04" cy="289.95" r="9.93"/>
<rect fill="#ffffff" x="-9.98" y="-61.21" transform="translate(149.99,362.01) rotate(45.0)" width="19.96" height="122.42" rx="9.86"/>
<rect fill="#ffffff" x="-90.21" y="-9.98" transform="translate(214.11,435.14) rotate(-45.0)" width="180.42" height="19.96" rx="9.90"/>
<path fill="#ffffff" d="   M 10.94 512.00   Q 9.81 512.00 8.69 512.00   Q 1.35 510.33 0.00 502.94   Q 0.00 501.94 0.00 500.94   Q 0.81 497.06 4.69 493.19   Q 33.27 464.61 61.84 436.03   Q 65.46 432.41 67.92 431.46   Q 72.24 429.78 76.06 432.11   Q 80.20 434.63 81.04 439.24   Q 81.93 444.19 77.69 448.43   Q 47.19 478.94 16.69 509.44   Q 14.79 511.34 10.94 512.00   Z"/>
</svg>