<?xml version="1.0" encoding="UTF-8" standalone="no"?>
<!DOCTYPE svg PUBLIC "-//W3C//DTD SVG 1.1//EN" "http://www.w3.org/Graphics/SVG/1.1/DTD/svg11.dtd">
<svg xmlns="http://www.w3.org/2000/svg" version="1.1" viewBox="0 0 512 512">
<path fill="#000000" d="M 176.81,0.00 Q 182.94,0.00 189.06,0.00 Q 206.22,2.02 222.20,8.22 Q 225.41,9.46 237.41,14.71 Q 245.94,18.43 252.44,21.56 Q 268.54,29.31 283.56,34.70 Q 289.90,36.97 299.00,38.75 Q 319.36,42.73 336.84,33.87 Q 344.82,29.82 345.80,29.56 Q 352.39,27.81 358.69,31.56 Q 363.51,34.43 365.59,39.58 Q 366.73,42.39 366.89,47.20 Q 367.00,50.44 367.00,55.00 Q 367.00,112.00 366.99,169.00 Q 366.99,176.07 363.09,181.06 Q 360.90,183.85 353.89,188.89 Q 325.36,209.39 289.68,199.83 Q 276.07,196.18 257.94,188.06 Q 240.00,180.03 235.56,177.94 Q 219.35,170.29 203.94,165.97 Q 199.03,164.60 193.99,163.81 Q 166.76,159.57 145.58,177.71 A 1.66,1.63 70.2 0 0 145.00,178.97 L 145.00,313.90 A 0.50,0.50 83.2 0 0 145.62,314.39 Q 200.44,301.87 256.00,299.65 Q 281.62,298.63 307.25,299.27 Q 351.64,300.37 395.83,304.74 Q 409.48,306.09 410.67,306.28 Q 418.08,307.45 425.15,310.17 Q 430.74,312.31 435.12,316.38 Q 439.63,320.58 440.81,326.19 Q 443.43,338.54 434.05,346.78 Q 429.37,350.88 424.19,352.94 Q 421.14,354.14 406.34,359.63 Q 403.81,360.57 401.59,362.11 Q 396.28,365.82 398.50,372.25 Q 399.74,375.84 402.87,379.18 Q 405.02,381.49 409.10,384.30 Q 420.81,392.35 436.69,398.81 Q 453.74,405.75 470.97,412.23 Q 487.79,418.57 500.38,431.37 Q 505.17,436.24 507.06,440.19 Q 515.02,456.77 502.64,469.64 Q 498.66,473.79 493.66,476.63 Q 482.97,482.72 471.21,486.36 Q 456.47,490.91 449.75,492.25 Q 402.58,501.65 354.76,506.80 Q 300.40,512.64 245.75,511.15 Q 184.47,509.48 124.47,497.36 Q 110.58,494.55 104.89,493.29 Q 88.31,489.61 70.75,484.00 Q 50.60,477.56 33.37,466.83 Q 26.31,462.43 21.20,457.95 Q 15.19,452.68 10.81,446.94 Q 1.39,434.58 0.00,418.19 Q 0.00,414.56 0.00,410.94 Q 2.80,388.99 18.54,373.54 Q 33.25,359.09 51.11,349.10 Q 57.67,345.43 69.00,340.14 Q 96.96,327.09 127.04,318.92 A 1.30,1.29 -7.6 0 0 128.00,317.67 Q 127.88,202.71 127.76,87.44 Q 127.76,87.31 127.68,71.06 Q 127.56,47.74 128.50,27.00 Q 128.63,24.16 130.81,22.05 Q 150.12,3.44 176.81,0.00 ZM 230.45,30.04 Q 217.40,23.92 203.49,20.25 Q 192.16,17.26 183.79,17.30 Q 162.18,17.41 145.31,32.31 A 0.94,0.92 -21.5 0 0 145.00,33.00 L 145.00,155.38 Q 145.00,156.47 145.92,155.89 Q 166.34,143.05 190.73,145.65 Q 206.04,147.27 218.94,152.31 Q 239.23,160.24 263.38,171.80 Q 274.99,177.35 287.28,181.16 Q 297.60,184.37 305.75,185.00 Q 330.51,186.92 349.32,170.27 A 1.12,1.10 69.4 0 0 349.69,169.44 Q 349.80,111.09 349.60,52.75 Q 349.59,49.86 349.99,47.09 Q 350.18,45.77 349.04,46.47 Q 329.06,58.85 305.51,56.86 Q 292.31,55.74 279.78,51.42 Q 266.94,46.98 256.75,42.25 Q 247.26,37.84 241.29,35.13 Q 241.15,35.07 230.45,30.04 ZM 164.15,427.66 Q 154.90,433.35 143.59,434.54 Q 135.11,435.44 125.25,433.75 Q 112.35,431.54 103.02,423.71 Q 98.34,419.78 96.06,414.94 Q 90.75,403.65 97.40,392.87 Q 99.99,388.67 103.86,385.62 Q 113.86,377.77 127.09,375.92 A 0.77,0.76 86.1 0 0 127.75,375.16 L 127.82,336.68 A 0.40,0.40 -7.8 0 0 127.31,336.30 Q 103.41,343.26 80.50,353.50 Q 60.69,362.36 45.37,372.84 Q 39.32,376.99 34.61,381.23 Q 28.62,386.63 25.31,391.31 Q 10.53,412.22 21.47,431.87 Q 25.86,439.76 34.64,446.71 Q 44.21,454.28 56.94,460.06 Q 71.49,466.67 83.75,470.25 Q 120.69,481.04 162.00,487.00 Q 209.31,493.82 251.25,494.62 Q 312.97,495.80 374.10,487.63 Q 384.65,486.23 393.91,484.91 Q 422.36,480.86 450.43,474.65 Q 465.66,471.28 480.06,465.32 Q 486.15,462.80 490.73,458.21 Q 492.26,456.68 492.75,455.38 Q 493.42,453.61 493.00,451.75 Q 492.10,447.82 489.15,444.61 Q 481.20,436.00 470.69,430.81 Q 462.74,426.89 442.09,419.36 Q 430.69,415.20 419.66,410.13 Q 406.26,403.96 394.82,394.68 Q 384.66,386.43 381.50,375.50 Q 377.57,361.91 385.54,352.36 Q 389.57,347.54 398.23,343.38 Q 405.32,339.98 412.93,337.77 Q 419.31,335.91 421.44,334.19 Q 425.09,331.23 423.21,328.37 Q 422.17,326.81 419.13,325.49 Q 414.09,323.31 409.50,322.75 Q 357.45,316.44 300.50,315.46 Q 261.80,314.80 223.25,318.30 Q 184.41,321.82 145.89,331.15 A 1.14,1.12 -7.1 0 0 145.01,332.26 L 145.18,375.31 A 0.57,0.56 3.4 0 0 145.68,375.87 Q 155.43,377.15 163.53,381.94 Q 172.64,387.31 176.65,395.31 Q 181.48,404.96 176.61,414.70 Q 172.78,422.34 164.15,427.66 ZM 115.51,411.96 Q 121.44,416.27 129.50,417.50 Q 140.82,419.22 150.85,415.40 Q 156.23,413.35 160.14,409.14 Q 164.07,404.91 160.25,401.00 Q 154.69,395.32 145.77,393.76 A 0.65,0.65 5.2 0 0 145.00,394.40 Q 145.00,397.50 145.10,399.49 Q 145.37,404.66 142.12,407.38 Q 139.09,409.93 134.88,409.26 Q 130.31,408.53 128.63,403.91 Q 128.02,402.21 128.01,399.03 Q 128.01,396.54 127.95,394.06 A 0.44,0.44 85.4 0 0 127.45,393.63 Q 122.94,394.27 118.91,396.16 Q 114.12,398.40 112.11,401.57 Q 108.68,406.98 115.51,411.96 Z"/>
<path fill="#000000" d="M 383.93,426.66 A 34.06 34.06 0.0 0 1 349.87,460.72 A 34.06 34.06 0.0 0 1 315.81,426.66 A 34.06 34.06 0.0 0 1 349.87,392.60 A 34.06 34.06 0.0 0 1 383.93,426.66 ZM 366.87,426.67 A 17.01 17.01 0.0 0 0 349.86,409.66 A 17.01 17.01 0.0 0 0 332.85,426.67 A 17.01 17.01 0.0 0 0 349.86,443.68 A 17.01 17.01 0.0 0 0 366.87,426.67 Z"/>
</svg>
