<?xml version="1.0" encoding="UTF-8" standalone="no"?>
<!DOCTYPE svg PUBLIC "-//W3C//DTD SVG 1.1//EN" "http://www.w3.org/Graphics/SVG/1.1/DTD/svg11.dtd">
<svg xmlns="http://www.w3.org/2000/svg" version="1.1" viewBox="0 0 512 512">
<path fill="#000000" d="M 190.24,393.68 Q 162.26,434.86 133.19,475.44 Q 130.69,478.93 126.67,478.60 Q 124.58,478.43 120.49,476.23 Q 91.99,460.87 82.06,455.19 Q 73.11,450.06 69.00,440.11 Q 62.86,425.22 70.81,411.31 Q 72.82,407.81 81.18,396.52 Q 85.23,391.04 88.46,389.11 Q 95.55,384.85 103.08,388.54 Q 106.40,390.17 110.91,395.14 Q 127.53,413.44 144.01,431.49 A 0.57,0.56 41.0 0 0 144.89,431.43 L 178.98,382.43 A 1.26,1.24 -48.4 0 0 178.90,380.89 Q 103.12,294.77 103.93,180.60 Q 104.00,170.94 104.00,170.90 Q 104.00,158.07 104.00,145.25 Q 104.00,137.34 111.22,135.62 Q 123.96,132.57 136.14,129.57 A 0.74,0.74 65.2 0 0 136.56,128.42 L 131.74,121.73 A 0.67,0.67 53.1 0 0 130.78,121.59 Q 128.52,123.34 126.11,124.91 Q 123.09,126.90 120.91,127.10 Q 116.35,127.53 113.19,123.06 Q 90.80,91.45 68.85,59.53 Q 66.60,56.26 66.52,53.84 Q 66.37,49.41 70.41,46.79 Q 72.31,45.55 72.41,45.48 Q 83.52,37.46 94.90,29.84 Q 98.32,27.55 100.72,27.60 Q 104.98,27.69 108.00,32.00 Q 129.17,62.19 150.31,92.41 Q 153.77,97.36 154.21,99.63 Q 155.15,104.48 150.23,107.97 Q 147.89,109.64 145.20,111.46 A 0.94,0.93 -34.7 0 0 144.95,112.78 L 153.52,124.78 A 0.72,0.71 -25.5 0 0 154.30,125.05 Q 180.29,117.87 203.79,104.94 Q 210.90,101.03 220.80,94.47 Q 234.72,85.25 250.81,73.81 Q 255.89,70.20 261.13,73.89 Q 276.03,84.38 291.21,94.44 Q 301.18,101.06 308.24,104.90 Q 331.73,117.71 357.97,125.21 A 0.99,0.97 -63.9 0 0 359.05,124.83 L 367.63,112.61 A 0.71,0.71 34.9 0 0 367.45,111.61 Q 364.51,109.62 361.62,107.35 Q 357.52,104.13 358.27,99.80 Q 358.65,97.61 361.71,93.25 Q 382.48,63.58 403.21,33.88 Q 406.38,29.34 408.43,28.24 Q 412.40,26.10 417.00,29.25 Q 427.15,36.20 437.28,43.18 Q 443.50,47.47 444.43,48.66 Q 446.84,51.75 445.60,55.82 Q 444.99,57.79 442.22,61.74 Q 421.29,91.58 400.32,121.40 Q 397.46,125.48 395.10,126.46 Q 391.19,128.09 387.06,125.19 Q 383.15,122.43 381.68,121.51 A 0.58,0.54 33.0 0 0 380.92,121.64 L 375.81,129.00 A 0.39,0.36 23.3 0 0 376.06,129.56 Q 387.85,132.54 399.66,135.48 Q 403.86,136.53 405.43,137.96 Q 408.00,140.30 408.00,144.25 Q 408.00,163.63 408.00,183.00 Q 408.00,195.44 407.53,203.00 Q 401.20,303.77 333.56,380.69 A 1.58,1.58 48.3 0 0 333.45,382.64 L 367.50,431.32 A 0.76,0.76 48.3 0 0 368.68,431.39 Q 384.29,413.94 399.70,397.23 Q 406.01,390.39 407.42,389.42 Q 412.32,386.05 418.75,387.00 Q 422.83,387.60 426.15,390.28 Q 428.18,391.92 431.17,396.32 Q 434.33,400.98 437.42,405.68 Q 437.46,405.75 439.81,409.14 Q 447.51,420.27 445.25,433.25 Q 443.60,442.69 437.20,449.41 Q 433.61,453.19 422.78,459.18 Q 395.40,474.33 389.25,477.50 Q 384.58,479.91 380.19,476.06 Q 379.17,475.17 376.77,471.72 Q 349.73,432.78 322.22,393.45 A 0.78,0.78 50.3 0 0 321.03,393.34 Q 294.32,419.43 261.44,437.94 Q 258.88,439.38 256.56,439.59 Q 254.63,439.76 251.86,438.25 Q 218.61,420.06 191.43,393.55 A 0.78,0.78 -51.1 0 0 190.24,393.68 ZM 426.6612,56.4216 A 0.66 0.66 0.0 0 0 426.4975,55.5026 L 414.4085,47.0692 A 0.66 0.66 0.0 0 0 413.4896,47.2329 L 377.5588,98.7384 A 0.66 0.66 0.0 0 0 377.7225,99.6574 L 389.8115,108.0908 A 0.66 0.66 0.0 0 0 390.7304,107.9271 L 426.6612,56.4216 ZM 98.8843,47.2803 A 0.52 0.52 0.0 0 0 98.1599,47.1539 L 85.9858,55.7100 A 0.52 0.52 0.0 0 0 85.8594,56.4344 L 122.0157,107.8797 A 0.52 0.52 0.0 0 0 122.7401,108.0061 L 134.9142,99.4500 A 0.52 0.52 0.0 0 0 135.0406,98.7256 L 98.8843,47.2803 ZM 202.44,382.06 Q 225.98,405.14 255.38,422.37 A 1.25,1.23 -44.8 0 0 256.63,422.36 Q 310.69,390.55 345.31,339.56 Q 387.28,277.77 391.60,201.99 Q 392.01,194.76 392.01,182.00 Q 392.02,166.33 391.94,150.79 A 0.68,0.67 -83.2 0 0 391.44,150.15 Q 377.85,146.81 364.72,143.61 Q 352.12,140.54 345.40,138.41 Q 311.11,127.54 281.18,107.27 Q 268.69,98.81 256.02,89.98 A 0.76,0.73 -44.9 0 0 255.17,89.99 Q 245.56,96.69 236.13,103.41 Q 208.45,123.11 176.70,134.75 Q 168.78,137.65 157.65,140.78 Q 139.42,145.92 120.78,150.05 A 0.99,0.99 83.9 0 0 120.00,151.02 Q 120.00,165.38 120.00,179.74 Q 120.00,192.99 120.34,199.74 Q 124.55,282.30 173.57,349.18 Q 185.51,365.47 202.44,382.06 ZM 88.31,439.68 Q 90.02,441.27 93.06,442.94 Q 108.57,451.42 123.99,459.90 A 0.67,0.65 -58.7 0 0 124.85,459.68 L 134.47,445.73 A 1.36,1.35 -48.9 0 0 134.36,444.03 L 97.05,403.21 A 0.84,0.83 40.9 0 0 95.75,403.30 Q 90.75,410.51 86.02,417.51 Q 77.73,429.78 88.31,439.68 ZM 415.15,403.88 L 378.08,444.52 A 1.14,1.12 49.1 0 0 377.99,445.93 L 387.66,459.69 A 0.80,0.80 -32.6 0 0 388.71,459.92 Q 401.49,452.82 414.32,445.79 Q 423.34,440.85 424.19,440.17 Q 429.10,436.22 430.00,429.75 Q 430.81,423.96 427.03,418.73 Q 424.78,415.60 424.74,415.54 Q 420.69,409.38 416.67,403.96 A 0.99,0.98 47.8 0 0 415.15,403.88 Z"/>
<path fill="#000000" d="M 203.94,374.31 Q 181.27,352.98 165.42,327.82 Q 133.06,276.46 128.55,216.24 Q 128.02,209.09 127.94,196.26 Q 127.85,181.88 127.75,167.50 Q 127.73,164.75 127.92,162.65 Q 128.18,159.78 129.38,158.12 Q 131.26,155.53 134.94,154.69 Q 142.03,153.06 166.98,146.67 Q 190.58,140.62 211.80,128.98 Q 218.25,125.43 228.76,118.39 Q 245.55,107.13 249.31,104.06 Q 252.82,101.19 256.48,101.42 Q 258.88,101.57 262.88,104.38 Q 284.99,119.92 291.06,123.69 Q 317.25,139.93 347.18,147.32 Q 359.89,150.45 372.59,153.59 Q 378.93,155.16 379.83,155.65 Q 382.46,157.10 383.46,160.08 Q 384.00,161.69 384.01,165.50 Q 384.03,179.97 383.98,194.44 Q 383.94,207.03 383.42,214.42 Q 377.87,293.32 327.44,353.94 Q 300.17,386.70 262.24,408.36 Q 258.59,410.45 256.29,410.51 Q 253.43,410.60 250.86,408.96 Q 249.05,407.81 248.95,407.75 Q 225.02,394.15 203.94,374.31 ZM 215.44,363.06 Q 233.72,380.34 255.35,393.01 A 1.38,1.36 -44.7 0 0 256.74,393.01 Q 291.31,372.56 316.67,341.45 Q 363.76,283.67 367.75,208.75 Q 368.45,195.63 367.83,169.43 A 0.66,0.65 -84.1 0 0 367.34,168.82 Q 362.03,167.48 356.72,166.13 Q 356.61,166.11 345.75,163.51 Q 316.95,156.61 291.18,142.25 Q 284.06,138.28 274.24,131.66 Q 265.52,125.76 256.89,119.56 A 1.50,1.49 45.2 0 0 255.17,119.55 Q 245.79,126.19 236.21,132.70 Q 205.74,153.41 170.00,162.51 Q 157.35,165.73 144.67,168.82 A 0.65,0.64 -6.5 0 0 144.18,169.43 Q 143.73,192.10 144.00,202.25 Q 146.00,278.90 192.97,338.79 Q 202.17,350.52 215.44,363.06 Z"/>
<path fill="#000000" d="M 327.93,255.98 A 71.93 71.93 0.0 0 1 256.00,327.91 A 71.93 71.93 0.0 0 1 184.07,255.98 A 71.93 71.93 0.0 0 1 256.00,184.05 A 71.93 71.93 0.0 0 1 327.93,255.98 ZM 311.93,255.99 A 55.93 55.93 0.0 0 0 256.00,200.06 A 55.93 55.93 0.0 0 0 200.07,255.99 A 55.93 55.93 0.0 0 0 256.00,311.92 A 55.93 55.93 0.0 0 0 311.93,255.99 Z"/>
<path fill="#000000" d="M 251.57,208.68 Q 256.73,214.44 251.25,219.77 Q 251.06,219.94 248.12,223.08 Q 246.67,224.63 244.69,225.42 Q 242.81,226.18 240.72,225.80 Q 236.71,225.05 235.00,221.64 Q 233.59,218.83 234.43,215.22 Q 236.08,208.20 243.75,206.25 Q 245.97,205.69 248.12,206.34 Q 249.98,206.91 251.57,208.68 Z"/>
<path fill="#000000" d="M 75.25,305.72 L 64.14,277.39 A 1.96,1.91 -89.2 0 0 63.15,276.34 Q 50.76,270.76 38.79,264.95 Q 34.27,262.75 32.98,260.52 Q 31.50,257.94 32.31,254.86 Q 33.02,252.10 35.23,250.37 Q 39.20,247.26 44.60,249.87 Q 49.91,252.43 56.01,255.47 Q 57.17,256.05 56.77,254.81 Q 52.27,241.01 49.43,227.49 Q 48.60,223.50 49.31,221.38 Q 50.06,219.18 51.90,217.69 Q 53.58,216.33 55.90,216.04 Q 60.01,215.52 62.64,218.28 Q 64.25,219.97 65.23,224.22 Q 68.52,238.45 72.50,252.51 Q 72.95,254.10 73.73,252.64 Q 77.92,244.73 82.75,236.47 Q 85.46,231.84 89.99,232.05 Q 93.85,232.23 96.15,235.08 Q 97.87,237.21 97.80,240.14 Q 97.75,242.11 96.22,244.94 Q 88.54,259.14 80.27,273.58 A 2.08,1.91 -42.5 0 0 80.12,275.32 L 91.23,302.88 Q 91.70,304.05 92.18,302.87 Q 95.21,295.56 98.34,288.54 Q 99.97,284.88 101.50,283.54 Q 104.11,281.26 107.59,281.83 Q 111.12,282.40 113.02,285.07 Q 114.43,287.05 114.44,289.63 Q 114.44,291.36 113.26,294.06 Q 107.52,307.29 101.26,321.57 A 2.11,1.92 -49.5 0 0 101.32,323.36 L 115.11,348.10 A 0.55,0.54 -42.7 0 0 116.04,348.13 Q 120.77,341.25 124.79,335.28 Q 127.73,330.92 132.08,331.30 Q 136.13,331.65 138.34,334.95 Q 140.06,337.52 139.36,340.76 Q 138.97,342.61 136.91,345.82 Q 131.46,354.35 125.87,363.11 A 1.07,1.07 43.6 0 0 125.90,364.31 Q 133.90,375.50 142.08,386.71 Q 143.84,389.12 144.11,390.74 Q 144.38,392.34 143.97,393.95 Q 143.61,395.35 142.47,396.69 Q 138.05,401.90 132.94,399.09 Q 130.55,397.78 126.96,393.02 Q 119.57,383.22 112.34,372.65 A 1.66,1.65 79.6 0 0 111.36,371.97 Q 95.80,368.04 81.06,364.44 Q 75.83,363.16 74.88,358.52 Q 74.04,354.43 76.53,351.43 Q 78.45,349.12 81.67,348.78 Q 83.51,348.58 87.12,349.51 Q 92.56,350.91 98.05,352.26 Q 99.00,352.50 98.53,351.62 L 86.78,329.88 A 1.58,1.32 84.8 0 0 86.12,329.22 Q 70.17,321.42 54.06,313.94 Q 49.37,311.76 49.23,307.21 Q 49.10,303.10 52.03,300.53 Q 54.36,298.50 57.67,298.75 Q 59.54,298.90 62.99,300.54 Q 68.93,303.38 74.97,305.99 Q 75.43,306.18 75.25,305.72 Z"/>
<path fill="#000000" d="M 258.57,220.59 Q 262.50,215.79 268.25,216.00 Q 271.54,216.12 273.67,218.43 Q 275.69,220.62 275.83,223.50 Q 276.03,227.64 271.93,231.07 Q 271.31,231.59 270.82,232.23 Q 268.48,235.26 265.32,235.79 Q 262.25,236.31 259.45,234.45 Q 255.44,231.80 256.23,226.00 Q 256.64,222.95 258.57,220.59 Z"/>
<path fill="#000000" d="M 438.06,252.66 Q 438.84,254.30 439.34,252.55 Q 443.57,237.76 446.81,223.31 Q 447.37,220.81 448.72,218.99 Q 450.09,217.16 452.42,216.35 Q 457.50,214.58 461.31,218.94 Q 462.91,220.76 463.10,223.24 Q 463.21,224.67 462.47,227.70 Q 459.14,241.43 455.25,255.02 Q 455.01,255.84 455.79,255.48 Q 461.72,252.78 467.56,249.82 Q 469.79,248.69 472.16,248.75 Q 474.48,248.80 476.44,250.20 Q 480.83,253.31 479.44,259.44 Q 479.07,261.08 477.40,262.57 Q 476.40,263.47 474.28,264.47 Q 461.55,270.53 448.89,276.72 A 1.31,1.24 89.5 0 0 448.26,277.40 L 436.99,305.52 Q 436.59,306.52 437.56,306.06 Q 444.38,302.88 451.19,299.69 Q 453.45,298.62 455.53,298.58 Q 457.59,298.53 459.64,299.77 Q 464.58,302.76 463.00,309.00 Q 462.32,311.70 459.12,313.29 Q 443.06,321.26 426.68,328.87 A 2.97,2.73 -85.9 0 0 425.41,330.07 L 413.34,351.60 Q 412.75,352.66 413.92,352.34 Q 419.33,350.87 424.60,349.60 Q 429.64,348.40 431.98,348.67 Q 436.97,349.24 438.15,354.03 Q 439.19,358.30 436.53,361.46 Q 434.31,364.08 430.58,364.78 Q 427.05,365.44 426.97,365.46 Q 413.96,368.81 400.93,372.06 A 1.37,1.33 9.0 0 0 400.16,372.60 Q 386.85,392.01 382.19,396.94 Q 376.56,402.89 370.69,397.56 Q 367.40,394.57 368.13,390.70 Q 368.53,388.61 371.36,384.88 Q 378.98,374.83 386.30,364.05 A 1.00,1.00 -44.1 0 0 386.32,362.94 Q 381.21,355.09 375.96,347.34 Q 372.81,342.70 372.22,340.75 Q 370.75,335.88 374.77,332.81 Q 377.87,330.43 381.30,331.01 Q 384.69,331.59 386.73,334.84 Q 387.81,336.57 387.85,336.61 Q 391.80,342.34 395.57,348.20 A 0.81,0.79 43.2 0 0 396.94,348.17 L 410.47,323.83 A 2.15,2.09 48.3 0 0 410.55,321.94 Q 404.19,307.33 398.06,293.44 Q 395.95,288.65 398.74,285.22 Q 401.22,282.17 405.18,281.97 Q 408.47,281.80 410.80,284.20 Q 412.05,285.48 413.67,289.13 Q 416.79,296.15 419.73,302.84 Q 420.29,304.12 420.81,302.83 L 431.52,275.92 A 3.17,3.07 41.8 0 0 431.33,273.25 Q 423.73,259.65 415.98,245.31 Q 414.13,241.90 414.21,239.76 Q 414.30,237.56 415.50,235.68 Q 416.56,234.03 418.67,233.11 Q 424.24,230.66 427.82,234.51 Q 428.65,235.41 432.17,241.48 Q 435.42,247.10 438.06,252.66 Z"/>
<path fill="#000000" d="M 233.57,226.68 Q 238.73,232.43 233.26,237.75 Q 233.10,237.91 230.12,241.10 Q 228.68,242.65 226.70,243.44 Q 224.81,244.18 222.72,243.79 Q 218.71,243.03 217.00,239.63 Q 215.59,236.83 216.43,233.22 Q 218.07,226.19 225.75,224.25 Q 227.97,223.69 230.12,224.34 Q 231.98,224.91 233.57,226.68 Z"/>
<path fill="#000000" d="M 248.21,241.56 Q 254.92,246.99 249.81,253.21 Q 249.69,253.35 247.92,254.97 Q 247.08,255.74 246.19,256.94 Q 244.68,258.96 242.27,259.65 Q 240.11,260.27 237.74,259.55 Q 233.87,258.37 232.60,254.73 Q 231.57,251.80 232.70,248.28 Q 235.05,240.94 243.50,240.00 Q 245.95,239.73 248.21,241.56 Z"/>
<path fill="#000000" d="M 219.69,248.82 Q 224.78,254.64 219.06,259.90 Q 217.80,261.06 216.06,263.17 Q 212.79,267.15 207.50,265.50 Q 203.78,264.34 202.57,260.86 Q 201.58,258.03 202.58,254.64 Q 204.40,248.46 211.18,246.42 Q 213.65,245.68 215.94,246.30 Q 217.97,246.85 219.69,248.82 Z"/>
<path fill="#000000" d="M 219.69,290.56 Q 217.13,289.09 216.35,286.29 Q 215.74,284.12 216.44,281.22 Q 218.52,272.58 227.75,272.00 Q 231.26,271.78 233.59,274.32 Q 235.73,276.65 235.87,279.64 Q 236.05,283.45 232.53,286.55 Q 231.59,287.37 230.76,288.30 Q 225.65,294.00 219.69,290.56 Z"/>
</svg>
