<?xml version="1.0" encoding="UTF-8" standalone="no"?>
<!DOCTYPE svg PUBLIC "-//W3C//DTD SVG 1.1//EN" "http://www.w3.org/Graphics/SVG/1.1/DTD/svg11.dtd">
<svg xmlns="http://www.w3.org/2000/svg" version="1.1" viewBox="0 0 512 512">
<path fill="#000000" d="M 299.06,0.00 Q 319.06,0.00 339.06,0.00 Q 354.76,2.38 359.88,15.74 Q 361.53,20.04 361.67,27.50 Q 361.84,36.88 361.49,46.26 Q 361.25,52.63 359.65,56.50 Q 355.44,66.64 345.13,70.13 Q 341.05,71.50 333.20,71.50 Q 305.07,71.50 276.66,71.50 A 0.66,0.66 0.1 0 0 276.00,72.16 L 276.00,133.19 A 0.56,0.56 0.0 0 0 276.56,133.75 Q 299.14,133.75 321.56,133.75 Q 328.40,133.75 329.42,133.93 Q 334.10,134.76 336.25,138.66 Q 337.75,141.39 337.75,148.10 Q 337.75,154.32 337.75,160.32 A 0.93,0.93 0.0 0 0 338.68,161.25 Q 346.00,161.25 353.07,161.25 Q 366.00,161.25 367.44,161.36 Q 385.87,162.84 397.81,176.69 Q 409.20,189.90 409.21,207.50 Q 409.25,291.62 409.25,375.74 Q 409.25,391.40 408.47,395.71 Q 406.15,408.44 397.06,418.31 Q 384.40,432.08 365.25,433.00 Q 356.00,433.45 338.50,433.26 A 0.52,0.52 -87.7 0 0 337.97,433.75 Q 337.57,441.24 337.82,448.75 Q 338.07,456.70 331.84,459.55 Q 329.75,460.50 325.99,460.50 Q 323.00,460.50 320.00,460.50 A 0.50,0.50 45.0 0 0 319.50,461.00 Q 319.50,477.67 319.50,494.35 Q 319.50,503.15 319.10,504.61 Q 317.53,510.42 310.44,512.00 Q 233.56,512.00 156.69,512.00 Q 151.76,510.98 149.44,507.23 Q 148.02,504.92 147.93,499.97 Q 147.59,480.62 147.75,461.25 A 0.55,0.54 -87.8 0 0 147.25,460.70 Q 144.85,460.46 140.50,460.50 Q 133.90,460.56 131.18,455.76 Q 129.75,453.23 129.75,447.46 Q 129.75,429.05 129.75,410.23 A 0.92,0.91 4.4 0 0 128.97,409.33 Q 109.38,406.33 104.04,389.64 Q 102.75,385.59 102.75,378.70 Q 102.75,327.10 102.75,275.50 Q 102.75,264.74 107.99,257.44 Q 115.60,246.83 128.93,245.74 A 0.90,0.89 -2.4 0 0 129.75,244.85 Q 129.75,198.41 129.75,152.06 Q 129.75,142.37 130.31,140.50 Q 132.39,133.57 141.75,133.62 Q 166.25,133.75 190.41,133.75 A 1.09,1.09 0.0 0 0 191.50,132.66 L 191.50,102.20 A 0.52,0.52 0.0 0 0 190.98,101.68 Q 160.97,101.80 131.75,101.75 Q 113.76,101.72 107.00,85.00 Q 105.47,81.20 105.58,74.75 Q 105.75,65.50 105.75,56.25 Q 105.75,50.28 107.61,45.39 Q 109.52,40.34 113.68,36.53 Q 120.77,30.03 131.25,30.02 Q 148.25,30.00 165.25,29.99 Q 171.66,29.99 177.74,31.59 Q 183.63,33.13 189.23,36.47 Q 206.21,46.57 210.28,65.59 Q 211.50,71.30 211.51,85.51 Q 211.53,109.35 211.44,132.93 A 0.81,0.81 -89.7 0 0 212.25,133.75 L 255.31,133.75 A 0.69,0.69 45.0 0 0 256.00,133.06 Q 256.00,92.45 256.00,51.89 Q 256.00,39.48 257.46,33.72 Q 261.37,18.26 274.56,8.56 Q 284.95,0.93 299.06,0.00 ZM 282.19,28.69 Q 274.09,38.23 276.23,51.20 A 0.57,0.56 84.7 0 0 276.80,51.68 Q 305.74,51.36 334.67,51.50 Q 334.77,51.50 336.33,51.59 Q 338.85,51.75 340.32,50.19 Q 341.48,48.95 341.59,45.97 Q 341.86,37.83 341.79,29.69 Q 341.74,24.82 341.65,24.31 Q 341.05,20.73 337.66,20.05 Q 337.42,20.00 330.82,20.00 Q 316.29,20.00 301.75,19.96 Q 289.63,19.92 282.19,28.69 ZM 182.08,55.67 Q 175.07,50.05 166.00,50.03 Q 148.55,50.00 131.10,50.00 Q 129.37,50.00 128.47,50.40 Q 127.11,51.01 126.40,52.24 Q 125.75,53.35 125.75,55.88 Q 125.75,65.57 125.75,75.26 Q 125.75,78.31 126.55,79.57 Q 127.89,81.69 131.00,81.69 Q 160.50,81.75 190.29,81.75 A 1.20,1.19 -87.7 0 0 191.48,80.65 Q 192.05,73.82 189.77,66.82 Q 187.58,60.09 182.08,55.67 ZM 317.75,154.02 A 0.27 0.27 0.0 0 0 317.48,153.75 L 150.00,153.75 A 0.27 0.27 0.0 0 0 149.73,154.02 L 149.73,184.98 A 0.27 0.27 0.0 0 0 150.00,185.25 L 317.48,185.25 A 0.27 0.27 0.0 0 0 317.75,184.98 L 317.75,154.02 ZM 338.28,413.07 Q 348.36,413.50 358.51,413.11 Q 358.57,413.11 363.49,413.10 Q 370.37,413.10 376.06,409.81 Q 384.67,404.85 387.71,396.11 Q 389.25,391.68 389.25,380.71 Q 389.29,295.84 389.19,210.97 Q 389.18,202.43 387.76,198.32 Q 385.03,190.41 377.94,185.56 Q 372.70,181.98 366.30,181.28 Q 366.26,181.28 354.18,181.29 Q 346.28,181.30 338.47,181.07 A 0.70,0.69 0.8 0 0 337.75,181.76 L 337.75,412.51 A 0.56,0.56 1.6 0 0 338.28,413.07 ZM 174.30,247.21 Q 187.56,251.52 191.92,264.86 Q 193.24,268.91 193.29,275.81 Q 193.95,360.92 193.50,380.50 Q 193.06,399.95 176.37,406.99 Q 172.06,408.81 165.85,409.11 Q 158.60,409.47 150.60,409.20 A 0.85,0.84 -89.3 0 0 149.74,410.05 L 149.57,439.94 A 0.56,0.55 90.0 0 0 150.12,440.50 L 317.18,440.44 A 0.51,0.50 -0.0 0 0 317.69,439.94 L 317.75,205.95 A 0.70,0.69 90.0 0 0 317.06,205.25 L 150.20,205.43 A 0.52,0.50 -0.6 0 0 149.69,205.93 L 149.68,245.07 A 0.68,0.68 0.0 0 0 150.36,245.75 Q 156.42,245.72 162.41,245.76 Q 169.98,245.80 174.30,247.21 ZM 169.52,266.75 Q 167.96,265.75 166.11,265.75 Q 149.37,265.75 131.75,265.75 Q 126.26,265.75 124.04,269.21 Q 122.75,271.23 122.75,276.55 Q 122.75,284.97 122.75,293.15 A 0.85,0.85 -89.8 0 0 123.60,294.00 L 172.44,294.00 A 1.04,1.03 0.3 0 0 173.48,292.98 Q 173.66,283.01 173.33,273.84 Q 173.24,271.16 172.49,269.82 Q 171.49,268.01 169.52,266.75 ZM 125.19,387.06 Q 127.70,389.38 131.00,389.36 Q 147.87,389.25 164.75,389.33 Q 169.54,389.35 171.88,386.06 Q 173.24,384.15 173.29,380.10 Q 173.67,348.34 173.49,314.88 A 0.83,0.82 0.0 0 0 172.66,314.06 L 123.60,314.00 A 0.85,0.85 89.8 0 0 122.75,314.85 Q 122.75,348.62 122.81,381.75 Q 122.81,384.87 125.19,387.06 ZM 299.51,461.13 A 0.63 0.63 0.0 0 0 298.88,460.50 L 168.38,460.50 A 0.63 0.63 0.0 0 0 167.75,461.13 L 167.75,491.37 A 0.63 0.63 0.0 0 0 168.38,492.00 L 298.88,492.00 A 0.63 0.63 0.0 0 0 299.51,491.37 L 299.51,461.13 Z"/>
</svg>
