<?xml version="1.0" encoding="UTF-8" standalone="no"?>
<!DOCTYPE svg PUBLIC "-//W3C//DTD SVG 1.1//EN" "http://www.w3.org/Graphics/SVG/1.1/DTD/svg11.dtd">
<svg xmlns="http://www.w3.org/2000/svg" version="1.1" viewBox="0 0 512 512">
<path fill="#000000" d="M 512.00,222.81 Q 512.00,224.56 512.00,226.31 Q 510.83,234.56 505.81,240.36 Q 504.39,241.99 494.42,249.85 Q 476.75,263.75 459.03,277.58 Q 451.67,283.32 449.93,284.30 Q 444.53,287.33 438.75,287.25 Q 427.00,287.08 419.49,278.38 A 0.92,0.91 -44.8 0 0 418.10,278.38 Q 408.70,289.39 395.98,297.65 A 0.91,0.90 66.5 0 0 395.60,298.63 Q 400.98,319.71 382.10,329.77 Q 377.49,332.23 371.97,332.25 A 0.88,0.88 -86.3 0 0 371.10,333.02 Q 368.58,352.18 350.25,357.14 A 0.69,0.68 -8.6 0 0 349.74,357.82 Q 350.13,367.52 345.16,374.61 Q 340.58,381.13 333.23,383.85 Q 325.96,386.53 317.36,384.61 A 0.59,0.58 -77.9 0 0 316.66,385.07 Q 315.45,391.44 311.64,396.35 Q 308.03,401.01 302.21,403.73 Q 289.17,409.83 275.94,401.05 Q 266.09,394.52 255.40,387.55 A 0.63,0.62 -51.6 0 0 254.61,387.65 Q 247.34,395.52 239.55,403.12 Q 239.51,403.15 236.91,405.84 Q 232.39,410.50 226.52,412.65 Q 220.12,415.00 212.83,413.55 Q 196.97,410.39 192.44,393.17 A 0.63,0.62 -8.7 0 0 191.81,392.71 Q 173.67,393.29 165.37,376.29 A 1.03,1.03 -24.0 0 0 164.05,375.79 Q 160.17,377.42 155.71,377.62 Q 151.63,377.80 147.40,376.51 Q 134.27,372.48 130.10,359.23 Q 129.06,355.92 129.04,352.66 Q 129.01,349.47 129.64,345.96 A 0.90,0.90 -77.2 0 0 129.00,344.94 Q 120.52,342.56 115.41,334.89 Q 106.89,322.11 113.64,308.48 A 0.61,0.61 30.5 0 0 113.44,307.71 Q 99.24,297.66 87.56,284.36 A 1.31,1.30 57.1 0 0 86.04,284.03 Q 70.03,291.26 57.32,281.21 Q 38.42,266.28 19.53,251.33 Q 7.42,241.75 6.94,241.23 Q 1.23,235.06 0.00,225.94 Q 0.00,224.06 0.00,222.19 Q 0.95,214.61 4.31,210.31 Q 42.78,161.13 81.31,111.98 Q 87.41,104.20 90.64,101.95 Q 96.63,97.79 104.25,97.75 Q 110.81,97.71 116.47,100.94 Q 117.62,101.59 126.30,108.33 Q 143.25,121.48 160.09,134.77 Q 170.61,143.07 172.16,144.99 Q 177.12,151.12 178.15,160.32 A 1.87,1.86 -81.5 0 0 179.25,161.82 Q 201.96,171.93 224.98,176.08 Q 226.76,176.40 228.47,175.78 Q 253.06,166.83 277.54,159.74 Q 283.27,158.08 288.16,157.91 Q 300.22,157.50 311.99,160.16 Q 321.14,162.22 322.59,162.44 Q 327.82,163.22 333.39,163.54 A 0.57,0.56 0.0 0 0 333.99,162.95 Q 333.51,152.81 339.15,145.70 Q 340.87,143.54 352.15,134.62 Q 371.36,119.43 390.73,104.46 Q 395.73,100.60 399.54,99.27 Q 411.02,95.29 420.61,101.60 Q 424.54,104.19 430.95,112.34 Q 492.83,191.07 507.44,210.06 Q 511.25,215.02 512.00,222.81 ZM 160.2248,166.0859 A 8.57 8.57 0.0 0 0 158.7688,154.0538 L 109.7270,115.6002 A 8.57 8.57 0.0 0 0 97.6950,117.0562 L 17.8752,218.8541 A 8.57 8.57 0.0 0 0 19.3312,230.8862 L 68.3730,269.3398 A 8.57 8.57 0.0 0 0 80.4050,267.8838 L 160.2248,166.0859 ZM 414.3044,117.0364 A 8.54 8.54 0.0 0 0 402.3145,115.5855 L 353.2097,154.0885 A 8.54 8.54 0.0 0 0 351.7588,166.0784 L 431.6156,267.9236 A 8.54 8.54 0.0 0 0 443.6055,269.3745 L 492.7103,230.8715 A 8.54 8.54 0.0 0 0 494.1612,218.8816 L 414.3044,117.0364 ZM 196.15,230.54 Q 200.67,233.33 206.00,233.42 Q 213.98,233.55 222.39,231.60 Q 223.07,231.44 223.68,231.09 Q 227.67,228.72 231.20,226.53 Q 231.31,226.46 237.52,222.79 Q 242.12,220.06 246.20,216.62 Q 250.42,213.07 252.37,212.14 Q 256.25,210.31 260.00,210.50 Q 264.88,210.75 269.75,210.99 Q 277.15,211.35 283.72,214.19 Q 287.47,215.82 295.71,221.64 Q 340.32,253.18 384.55,284.75 A 1.31,1.30 47.1 0 0 385.98,284.81 Q 399.17,276.94 408.48,265.17 A 0.63,0.62 45.5 0 0 408.48,264.40 L 342.86,180.61 A 1.62,1.61 71.7 0 0 341.63,179.99 Q 331.58,179.73 321.42,178.40 Q 318.67,178.04 309.21,175.93 Q 300.01,173.87 290.50,173.77 Q 286.62,173.74 284.00,174.50 Q 251.93,183.86 221.23,195.48 A 3.99,3.88 7.6 0 0 219.52,196.75 Q 206.86,213.23 195.87,229.23 A 0.93,0.92 33.0 0 0 196.15,230.54 ZM 184.06,241.44 Q 181.20,238.40 179.27,234.71 Q 177.26,230.88 178.56,227.81 Q 181.31,221.36 187.74,212.54 Q 196.11,201.05 205.26,189.08 A 0.74,0.74 26.4 0 0 204.87,187.92 Q 188.45,183.40 172.89,176.57 A 0.64,0.63 30.4 0 0 172.13,176.76 L 98.13,271.29 A 0.71,0.69 -46.1 0 0 98.14,272.17 Q 109.35,285.64 124.09,295.48 A 0.62,0.60 -50.6 0 0 124.86,295.39 Q 135.54,284.77 146.31,274.25 Q 150.12,270.52 152.85,269.03 Q 156.63,266.97 160.84,266.19 Q 166.95,265.07 173.04,267.03 Q 185.07,270.87 190.07,284.37 A 0.66,0.66 -14.9 0 0 190.80,284.79 Q 204.68,282.27 213.69,290.33 Q 219.82,295.80 221.75,303.44 Q 223.72,311.19 220.61,319.64 A 0.65,0.64 -68.0 0 0 220.95,320.46 Q 238.33,328.04 237.59,346.93 A 0.62,0.59 -82.6 0 0 238.05,347.55 Q 255.98,351.88 259.11,370.07 A 1.21,1.20 -76.8 0 0 259.59,370.85 Q 272.47,379.98 285.93,388.24 Q 288.84,390.02 291.06,390.11 Q 294.15,390.23 296.61,388.62 Q 299.89,386.48 300.79,382.27 Q 302.12,376.10 295.96,372.03 Q 281.72,362.60 267.51,353.14 Q 263.54,350.51 262.44,348.39 Q 260.49,344.63 263.19,340.69 Q 266.31,336.13 271.02,337.21 Q 273.03,337.67 277.78,340.81 Q 298.01,354.17 318.27,367.47 Q 323.32,370.79 327.77,368.82 Q 331.78,367.04 333.37,362.48 Q 335.51,356.32 328.87,351.91 Q 308.93,338.66 289.02,325.37 Q 284.77,322.53 283.64,320.44 Q 281.53,316.54 284.56,312.31 Q 287.00,308.91 290.96,309.13 Q 293.34,309.26 296.96,311.62 Q 316.69,324.52 336.40,337.46 Q 336.49,337.53 338.87,339.27 Q 342.98,342.28 347.36,341.22 Q 352.01,340.10 354.20,335.52 Q 356.41,330.89 353.31,326.71 Q 351.84,324.74 347.02,321.55 Q 329.56,309.98 312.13,298.36 Q 312.07,298.32 309.65,296.91 Q 306.52,295.09 305.53,291.92 Q 304.38,288.27 306.49,284.96 Q 308.66,281.54 312.91,281.63 Q 315.34,281.67 318.51,283.73 Q 341.68,298.73 364.78,313.85 Q 367.46,315.61 369.09,316.02 Q 371.64,316.66 374.08,315.94 Q 377.30,314.99 379.36,311.74 Q 382.29,307.11 379.69,302.52 Q 378.30,300.07 373.62,296.71 Q 332.76,267.41 291.69,238.39 Q 291.62,238.35 285.52,233.88 Q 281.39,230.86 278.56,229.44 Q 274.06,227.18 269.00,226.94 Q 265.12,226.75 260.77,226.47 Q 258.99,226.35 257.76,227.63 Q 254.32,231.18 249.58,234.10 Q 241.09,239.35 232.51,244.46 Q 228.94,246.59 225.45,247.39 Q 213.91,250.02 202.15,248.88 Q 196.47,248.34 192.51,246.83 Q 187.28,244.84 184.06,241.44 ZM 172.2100,298.1348 A 9.40 9.40 0.0 0 0 172.2100,284.8411 L 171.8989,284.5300 A 9.40 9.40 0.0 0 0 158.6052,284.5300 L 129.4300,313.7052 A 9.40 9.40 0.0 0 0 129.4300,326.9989 L 129.7411,327.3100 A 9.40 9.40 0.0 0 0 143.0348,327.3100 L 172.2100,298.1348 ZM 203.6176,302.8279 A 9.46 9.46 0.0 0 0 190.2391,302.8279 L 147.7279,345.3391 A 9.46 9.46 0.0 0 0 147.7279,358.7176 L 147.9824,358.9721 A 9.46 9.46 0.0 0 0 161.3609,358.9721 L 203.8721,316.4609 A 9.46 9.46 0.0 0 0 203.8721,303.0824 L 203.6176,302.8279 ZM 218.5998,337.5525 A 9.34 9.34 0.0 0 0 205.3910,337.5525 L 182.4525,360.4910 A 9.34 9.34 0.0 0 0 182.4525,373.6998 L 182.8202,374.0675 A 9.34 9.34 0.0 0 0 196.0290,374.0675 L 218.9675,351.1290 A 9.34 9.34 0.0 0 0 218.9675,337.9202 L 218.5998,337.5525 ZM 240.1526,365.9359 A 9.27 9.27 0.0 0 0 227.0428,365.9130 L 210.8785,382.0210 A 9.27 9.27 0.0 0 0 210.8557,395.1308 L 211.3074,395.5841 A 9.27 9.27 0.0 0 0 224.4172,395.6070 L 240.5815,379.4990 A 9.27 9.27 0.0 0 0 240.6043,366.3892 L 240.1526,365.9359 Z"/>
</svg>
