<svg xmlns="http://www.w3.org/2000/svg" version="1.1" viewBox="0 0 400 400">
<path fill="#283927" d="M 305.39,88.08 A 1.16,1.08 -48.8 0 0 303.64,88.26 L 299.85,93.65 A 0.73,0.69 -65.3 0 0 300.23,94.77 Q 311.54,97.33 321.75,100.00 Q 326.74,101.31 326.74,107.25 Q 326.75,123.63 326.66,140.00 Q 326.15,233.85 264.58,303.38 A 0.63,0.63 48.7 0 0 264.53,304.16 L 293.00,345.02 A 0.59,0.59 48.7 0 0 293.91,345.08 Q 308.14,329.40 322.56,313.56 Q 329.11,306.38 337.37,308.75 Q 340.13,309.54 342.44,311.80 Q 344.61,313.93 346.29,316.46 Q 349.22,320.91 349.31,321.02 Q 351.62,324.30 354.06,328.44 Q 358.65,336.21 357.54,344.97 Q 355.76,359.00 343.47,365.75 Q 318.82,379.28 311.94,382.94 Q 308.48,384.77 305.54,383.32 Q 303.84,382.49 301.49,379.14 Q 278.65,346.62 255.63,313.63 A 0.75,0.74 -39.4 0 0 254.50,313.52 Q 234.14,333.10 210.47,347.26 Q 204.11,351.06 203.94,351.13 Q 200.05,352.58 195.83,350.17 Q 169.11,334.89 147.30,313.91 A 0.92,0.92 -50.5 0 0 145.91,314.05 Q 122.53,347.97 99.06,381.06 Q 96.70,384.40 93.19,384.20 Q 91.35,384.10 87.58,382.05 Q 73.70,374.51 59.91,366.82 Q 52.50,362.69 49.56,359.40 Q 44.67,353.92 43.50,346.75 Q 41.84,336.56 47.00,328.25 Q 49.77,323.80 53.89,318.19 Q 59.07,311.14 62.25,309.45 Q 68.28,306.23 75.69,310.56 Q 77.10,311.39 81.48,316.28 Q 94.53,330.84 107.43,344.90 A 0.66,0.65 -48.8 0 0 108.45,344.83 L 136.51,304.48 A 1.16,1.15 41.4 0 0 136.42,303.05 Q 78.32,237.92 74.73,149.99 Q 74.30,139.54 74.25,107.50 Q 74.24,103.66 76.55,101.58 Q 77.89,100.36 81.93,99.33 Q 91.23,96.95 100.75,94.69 A 0.80,0.79 -24.9 0 0 101.21,93.45 L 97.40,88.21 A 0.55,0.55 54.9 0 0 96.66,88.08 Q 94.87,89.27 93.24,90.39 Q 91.03,91.92 89.63,92.28 Q 85.04,93.47 81.94,89.06 Q 58.14,55.31 45.67,37.05 Q 43.48,33.84 43.27,31.94 Q 42.90,28.55 46.06,26.31 Q 56.53,18.89 67.05,11.55 Q 73.17,7.29 77.43,13.32 Q 95.93,39.51 114.17,65.88 Q 116.18,68.77 116.24,70.65 Q 116.34,73.58 113.81,75.81 Q 111.45,77.90 108.74,79.41 A 0.82,0.81 -31.9 0 0 108.46,80.59 L 115.45,90.60 A 0.75,0.71 -25.3 0 0 116.24,90.86 Q 147.13,82.23 173.58,64.09 Q 182.66,57.86 191.69,51.54 Q 197.07,47.77 197.78,47.52 Q 201.49,46.19 205.69,49.06 Q 217.56,57.18 229.49,65.23 Q 255.27,82.63 284.91,90.90 A 1.17,1.15 -64.1 0 0 286.17,90.45 L 292.48,81.54 Q 293.70,79.82 291.86,78.83 Q 289.51,77.56 287.44,75.56 Q 284.79,72.98 285.34,69.90 Q 285.62,68.31 287.89,65.03 Q 305.28,39.93 322.91,15.00 Q 325.58,11.22 327.42,10.34 Q 329.94,9.15 332.63,10.46 Q 332.87,10.58 336.73,13.20 Q 344.35,18.36 351.93,23.57 Q 356.51,26.72 357.56,28.96 Q 359.32,32.73 356.22,36.75 Q 354.81,38.58 354.73,38.69 Q 337.89,62.70 321.08,86.73 Q 318.40,90.56 316.66,91.55 Q 313.26,93.50 309.42,91.01 Q 307.69,89.89 307.40,89.71 Q 306.15,88.92 305.39,88.08 ZM 255.58,102.64 Q 239.71,96.43 225.56,86.94 Q 221.04,83.91 204.44,72.31 Q 202.37,70.87 199.93,71.21 Q 198.38,71.42 195.98,73.06 Q 187.72,78.71 179.45,84.33 Q 169.01,91.42 162.51,94.89 Q 142.45,105.60 120.11,110.76 Q 110.57,112.96 101.00,114.99 Q 95.35,116.18 94.35,120.82 Q 94.27,121.18 94.22,128.70 Q 94.06,150.55 94.50,160.25 Q 96.64,207.07 118.69,247.56 Q 146.08,297.87 196.31,326.44 Q 198.47,327.66 200.56,327.70 Q 202.17,327.73 204.57,326.41 Q 249.89,301.44 276.75,257.75 Q 307.53,207.69 306.89,148.00 Q 306.77,136.16 306.75,124.32 Q 306.75,120.40 305.77,118.86 Q 304.28,116.49 300.75,115.50 Q 290.69,112.68 288.50,112.25 Q 271.61,108.91 255.58,102.64 Z"/>
<path fill="#283927" d="M 264.85,119.94 Q 278.38,123.97 292.26,126.75 A 1.47,1.46 -83.9 0 1 293.43,128.21 Q 293.21,139.01 293.21,149.99 Q 293.21,162.83 292.47,169.96 Q 287.00,223.46 253.83,266.35 Q 232.05,294.51 201.25,312.80 A 1.39,1.39 -45.7 0 1 199.83,312.80 Q 139.04,276.71 116.56,209.19 Q 110.41,190.70 108.44,169.72 Q 107.75,162.34 107.75,149.75 Q 107.75,138.75 107.75,127.98 A 1.11,1.10 83.4 0 1 108.60,126.90 Q 124.87,123.06 140.19,118.31 Q 159.40,112.36 174.19,103.44 Q 187.49,95.41 195.75,89.25 Q 198.62,87.11 200.23,86.28 A 0.87,0.81 47.8 0 1 201.10,86.35 Q 218.45,98.27 221.81,100.44 Q 232.57,107.39 246.04,113.20 Q 254.64,116.91 264.85,119.94 Z"/>
<path fill="#283927" d="M 69.17,279.09 Q 70.31,279.31 69.70,278.33 Q 64.61,270.17 60.40,261.28 A 3.11,3.09 -0.2 0 0 58.91,259.81 Q 47.80,254.64 37.25,249.57 Q 31.78,246.94 30.94,246.16 Q 28.67,244.05 29.12,240.69 Q 29.50,237.83 31.76,236.16 Q 35.16,233.65 39.37,235.82 Q 42.27,237.32 42.35,237.35 Q 45.88,238.91 49.62,240.78 Q 50.95,241.45 50.40,240.04 L 41.66,217.98 A 3.62,3.14 88.5 0 0 39.95,216.11 Q 29.62,211.42 19.75,206.75 Q 15.43,204.71 14.87,200.98 Q 14.33,197.36 17.26,194.94 Q 20.76,192.06 25.93,194.72 Q 29.85,196.73 33.83,198.70 Q 35.61,199.58 34.98,197.69 Q 31.92,188.57 29.84,179.13 Q 28.65,173.74 28.65,172.96 Q 28.67,170.46 30.35,168.56 Q 31.84,166.87 34.23,166.40 Q 38.03,165.67 40.29,168.46 Q 41.50,169.95 42.41,173.86 Q 45.11,185.36 48.25,196.76 Q 48.59,197.97 49.17,196.86 Q 52.26,190.98 55.70,185.12 Q 57.84,181.46 59.46,180.41 Q 62.49,178.44 66.19,180.56 Q 69.26,182.32 69.32,185.70 Q 69.35,187.68 67.63,190.89 Q 61.34,202.62 54.53,214.12 A 1.30,1.26 -40.9 0 0 54.43,215.25 L 63.69,238.32 Q 64.06,239.25 64.49,238.33 Q 66.80,233.28 69.04,228.08 Q 69.10,227.95 69.84,225.90 Q 71.27,222.01 74.84,221.18 Q 78.09,220.42 80.75,222.54 Q 84.62,225.63 82.01,231.47 Q 77.08,242.48 72.09,254.09 A 1.35,1.22 -49.2 0 0 72.12,255.24 L 83.65,275.91 A 0.53,0.51 -44.0 0 0 84.54,275.91 Q 88.36,269.91 92.31,264.31 Q 93.65,262.42 96.10,262.09 Q 98.17,261.80 100.19,262.71 Q 103.31,264.12 103.74,267.45 Q 104.03,269.63 102.36,272.59 Q 98.07,280.22 92.90,287.54 A 1.90,1.89 -44.9 0 0 92.89,289.72 Q 98.84,298.36 104.88,306.36 Q 107.56,309.92 107.77,312.35 Q 108.15,316.97 102.94,318.69 Q 99.30,319.88 96.37,316.41 Q 88.56,307.18 81.93,297.05 A 3.62,3.61 80.3 0 0 79.77,295.52 Q 68.54,292.75 57.18,289.92 Q 53.63,289.03 52.16,287.78 Q 49.58,285.58 50.12,282.21 Q 50.66,278.89 53.33,277.29 Q 56.11,275.62 59.87,276.76 Q 64.72,278.23 69.17,279.09 Z"/>
<path fill="#283927" d="M 351.41,196.34 Q 352.26,198.14 352.79,196.22 Q 356.08,184.28 358.75,172.75 Q 359.49,169.56 361.46,167.85 Q 363.41,166.16 366.41,166.39 Q 370.64,166.72 371.81,170.65 Q 372.47,172.87 371.58,176.80 Q 369.12,187.77 365.75,198.51 Q 365.34,199.80 366.52,199.14 Q 371.30,196.47 376.42,194.40 Q 379.01,193.35 380.86,193.66 Q 383.50,194.10 384.97,196.16 Q 386.93,198.92 385.79,202.07 Q 384.70,205.06 381.06,206.81 Q 371.68,211.33 361.43,216.13 A 3.67,3.51 89.1 0 0 359.62,218.09 L 350.86,240.47 Q 350.44,241.56 351.46,241.02 Q 356.99,238.12 362.71,235.69 Q 365.33,234.57 367.10,234.80 Q 369.77,235.13 371.19,237.31 Q 374.13,241.84 371.35,245.21 Q 370.04,246.80 365.55,248.93 Q 354.04,254.40 342.45,259.77 A 3.88,3.36 -84.7 0 0 340.82,261.33 L 331.31,278.32 Q 330.46,279.83 332.09,279.31 Q 335.06,278.36 338.29,277.61 Q 344.34,276.20 344.56,276.19 Q 347.28,276.00 349.45,277.62 Q 351.41,279.09 351.88,281.64 Q 352.57,285.46 349.75,287.73 Q 348.27,288.92 344.33,289.91 Q 332.67,292.83 321.08,295.73 A 2.54,2.50 9.3 0 0 319.57,296.80 Q 313.75,305.65 307.33,314.04 Q 305.48,316.45 303.44,317.94 Q 301.10,319.64 298.30,318.38 Q 292.39,315.71 293.69,310.92 Q 294.20,309.06 297.61,304.62 Q 303.42,297.05 308.46,289.28 A 1.32,1.31 -45.5 0 0 308.45,287.81 Q 303.04,279.71 297.81,271.94 Q 296.41,269.85 296.72,267.45 Q 297.01,265.28 298.67,263.57 Q 301.40,260.77 305.13,262.01 Q 307.26,262.72 309.17,265.39 Q 312.94,270.64 316.28,276.14 A 0.48,0.48 -44.8 0 0 317.09,276.14 Q 322.76,267.22 327.16,258.38 Q 327.18,258.33 328.08,256.82 Q 329.29,254.80 328.18,252.75 Q 327.10,250.75 327.04,250.63 Q 323.24,241.29 319.06,232.11 Q 317.77,229.28 317.78,227.57 Q 317.79,224.77 319.70,222.97 Q 322.10,220.70 325.40,221.16 Q 328.91,221.64 330.64,225.55 Q 333.41,231.81 336.08,237.83 Q 336.72,239.26 337.30,237.83 L 346.44,215.42 A 1.10,1.04 42.2 0 0 346.37,214.49 Q 339.24,201.63 332.44,189.31 Q 330.86,186.45 332.20,183.77 Q 333.37,181.41 335.82,180.26 Q 338.36,179.07 340.92,180.26 Q 342.64,181.06 344.26,183.57 Q 348.43,190.02 351.41,196.34 Z"/>
</svg>