<?xml version="1.0" encoding="UTF-8" standalone="no"?>
<!DOCTYPE svg PUBLIC "-//W3C//DTD SVG 1.1//EN" "http://www.w3.org/Graphics/SVG/1.1/DTD/svg11.dtd">
<svg xmlns="http://www.w3.org/2000/svg" version="1.1" viewBox="0 0 512 512">
<path fill="#000000" d="M 318.84,328.42 Q 301.21,376.45 277.00,422.25 Q 268.22,438.85 255.94,457.15 Q 245.16,473.22 229.31,488.31 Q 222.35,494.94 213.92,497.25 Q 211.18,498.00 206.99,498.00 Q 204.66,498.00 202.32,498.00 Q 199.56,498.00 197.70,497.66 Q 190.21,496.29 184.52,491.71 Q 179.14,487.38 176.17,480.51 Q 171.07,468.73 176.61,457.13 Q 178.44,453.29 184.52,446.24 Q 188.19,441.98 193.56,435.56 Q 214.76,410.23 227.92,381.21 Q 248.40,336.03 241.64,287.37 Q 240.37,278.16 237.69,267.78 Q 231.28,242.93 219.81,218.19 Q 217.41,213.00 215.92,206.69 Q 214.52,200.78 214.31,194.72 Q 213.62,174.35 224.01,157.45 Q 229.51,148.49 237.04,142.41 Q 255.12,127.80 280.25,132.00 Q 284.10,132.64 294.25,132.27 Q 320.73,131.28 339.56,113.06 Q 347.24,105.63 351.15,95.67 Q 352.42,92.46 351.92,89.22 Q 351.71,87.87 350.08,83.19 Q 347.61,76.10 343.81,68.94 Q 337.77,57.53 332.06,48.44 Q 331.25,47.15 329.15,42.52 A 0.43,0.42 59.7 0 0 328.52,42.35 L 276.47,80.01 A 0.98,0.98 71.4 0 0 276.07,80.82 Q 276.25,92.56 271.65,102.78 Q 267.62,111.71 259.93,118.78 Q 241.33,135.89 214.22,129.55 Q 214.05,129.51 211.84,128.74 Q 210.85,128.40 209.80,128.33 A 1.45,1.24 -57.9 0 0 208.91,128.61 L 139.32,179.17 Q 138.40,179.84 139.51,180.10 Q 145.25,181.43 150.41,183.25 Q 156.24,185.31 160.64,188.06 Q 178.33,199.08 182.00,220.75 Q 182.70,224.89 182.41,231.01 Q 181.92,241.08 174.94,246.94 Q 169.88,251.17 162.31,250.19 Q 153.79,249.08 145.63,243.14 Q 136.35,236.40 129.60,227.12 Q 123.91,219.31 117.75,207.25 Q 112.32,196.62 116.00,185.50 Q 118.71,177.32 125.94,171.99 Q 160.62,146.47 196.13,120.90 A 0.58,0.58 49.0 0 0 196.19,120.00 Q 190.76,115.00 187.01,109.30 Q 183.22,103.55 181.19,96.59 Q 176.82,81.66 181.85,67.32 Q 185.24,57.63 191.97,50.24 Q 200.40,40.99 212.75,37.00 Q 223.45,33.54 234.30,35.11 Q 244.26,36.55 252.98,41.87 Q 266.12,49.90 272.36,64.89 A 0.57,0.57 60.6 0 0 273.22,65.13 Q 302.60,43.88 331.86,22.63 Q 340.12,16.64 344.49,15.31 Q 353.76,12.51 362.03,17.84 Q 365.77,20.24 369.77,25.84 Q 378.55,38.14 385.38,51.66 Q 391.03,62.84 394.38,74.92 Q 396.95,84.13 397.00,93.00 Q 397.04,99.07 395.40,105.01 Q 394.09,109.74 390.51,115.93 Q 381.16,132.11 367.19,149.19 Q 353.78,165.58 339.20,180.67 A 0.80,0.80 53.1 0 0 339.07,181.61 Q 381.16,257.97 389.25,344.75 Q 394.51,401.13 385.17,459.89 Q 382.58,476.14 381.32,479.49 Q 377.42,489.90 367.19,494.95 Q 360.29,498.36 353.37,498.01 Q 345.98,497.62 339.44,493.31 Q 328.13,485.84 326.50,472.25 Q 326.03,468.31 327.25,448.75 Q 328.54,428.09 328.09,396.75 Q 327.70,370.35 323.53,344.28 Q 322.27,336.40 319.91,328.46 Q 319.43,326.82 318.84,328.42 ZM 320.69,305.34 Q 322.39,306.28 323.69,307.81 Q 327.28,312.05 329.52,317.13 Q 334.74,329.01 336.88,341.82 Q 341.13,367.23 341.65,393.00 Q 342.22,422.14 340.68,451.25 Q 340.27,459.09 340.08,466.94 Q 339.96,471.87 340.85,474.44 Q 342.21,478.35 345.31,480.85 Q 349.40,484.17 355.35,484.13 Q 362.77,484.08 366.87,478.13 Q 369.05,474.98 370.31,467.99 Q 374.67,443.83 376.75,416.25 Q 386.18,291.15 324.94,183.56 Q 323.42,180.89 324.14,178.24 Q 324.60,176.55 326.97,174.12 Q 346.72,153.88 364.03,131.55 Q 369.08,125.03 373.07,119.14 Q 379.07,110.28 380.94,105.94 Q 384.80,96.97 383.26,87.25 Q 380.99,72.87 374.31,59.94 Q 366.14,44.11 358.68,33.40 Q 355.91,29.42 353.61,28.33 Q 349.71,26.46 345.69,29.44 Q 342.12,32.07 342.47,36.12 Q 342.66,38.30 345.09,42.37 Q 349.33,49.45 354.81,59.44 Q 361.00,70.71 364.56,81.69 Q 366.23,86.81 366.21,91.74 Q 366.20,96.07 364.05,101.49 Q 354.79,124.90 332.25,136.00 Q 308.23,147.83 280.42,146.17 Q 280.33,146.16 274.23,145.52 Q 260.51,144.07 249.54,150.76 Q 241.57,155.63 235.70,164.93 Q 224.30,182.99 229.41,204.31 Q 230.51,208.93 235.23,219.69 Q 247.79,248.31 253.50,278.25 Q 264.07,333.72 241.50,385.61 Q 231.96,407.55 218.56,426.06 Q 206.99,442.06 192.65,457.99 Q 189.47,461.52 188.52,463.52 Q 186.91,466.93 187.25,470.50 Q 188.39,482.43 200.49,484.57 Q 210.41,486.32 217.31,480.56 Q 228.81,470.97 239.26,456.49 Q 252.95,437.53 263.97,416.90 Q 274.13,397.89 283.02,378.26 Q 298.29,344.55 311.06,309.81 Q 312.76,305.19 317.03,304.62 Q 318.93,304.37 320.69,305.34 ZM 262.09,83.02 A 34.54 34.54 0.0 0 0 227.55,48.48 A 34.54 34.54 0.0 0 0 193.01,83.02 A 34.54 34.54 0.0 0 0 227.55,117.56 A 34.54 34.54 0.0 0 0 262.09,83.02 ZM 157.08,202.42 Q 152.96,198.82 146.75,196.50 Q 138.15,193.29 129.02,192.50 A 0.71,0.71 2.2 0 0 128.25,193.21 Q 128.25,196.08 129.10,198.60 Q 129.42,199.55 131.31,203.51 Q 137.52,216.50 147.54,226.74 Q 150.91,230.18 153.99,232.14 Q 157.56,234.42 161.59,235.86 Q 167.43,237.96 168.18,231.74 Q 170.30,213.95 157.08,202.42 Z"/>
</svg>
