<?xml version="1.0" encoding="UTF-8" standalone="no"?>
<!DOCTYPE svg PUBLIC "-//W3C//DTD SVG 1.1//EN" "http://www.w3.org/Graphics/SVG/1.1/DTD/svg11.dtd">
<svg xmlns="http://www.w3.org/2000/svg" version="1.1" viewBox="0 0 512 512">
<path fill="#000000" d="M 40.31,0.00 Q 42.19,0.00 44.06,0.00 Q 56.48,1.71 63.00,13.00 Q 118.76,109.51 174.26,206.16 Q 180.51,217.04 173.46,227.79 A 1.18,1.18 47.0 0 0 173.42,229.04 L 285.16,421.94 A 0.64,0.63 60.0 0 0 286.02,422.18 Q 304.18,411.67 321.94,401.44 Q 338.90,391.66 357.65,395.83 Q 367.67,398.06 375.91,403.66 Q 391.37,414.14 396.38,433.49 Q 399.70,446.28 396.44,458.44 Q 390.93,478.95 372.42,489.99 Q 350.88,502.83 341.69,507.19 Q 333.00,511.30 320.94,512.00 Q 319.81,512.00 318.69,512.00 Q 289.21,510.34 273.37,488.10 Q 272.06,486.25 263.18,470.91 Q 199.71,361.28 135.89,250.95 A 1.42,1.41 73.0 0 0 134.59,250.25 Q 121.39,250.88 114.97,239.74 Q 59.26,142.90 3.31,46.19 Q 0.79,41.83 0.00,35.94 Q 0.00,34.06 0.00,32.19 Q 0.93,24.89 5.22,19.56 Q 7.83,16.32 14.79,12.23 Q 22.17,7.88 29.59,3.62 Q 34.58,0.75 40.31,0.00 ZM 45.83,14.89 Q 42.46,13.45 39.33,14.43 Q 38.58,14.67 33.84,17.33 Q 26.77,21.29 19.83,25.48 Q 16.76,27.34 15.60,29.06 Q 13.87,31.64 14.09,34.67 Q 14.27,37.07 17.02,41.83 Q 46.77,93.39 76.46,144.76 A 0.94,0.94 60.2 0 0 77.74,145.10 L 111.20,125.84 A 0.68,0.67 -30.2 0 0 111.45,124.92 Q 80.85,71.80 50.10,18.67 Q 48.59,16.07 45.83,14.89 ZM 119.0894,138.1310 A 0.67 0.67 0.0 0 0 118.1742,137.8858 L 84.4858,157.3358 A 0.67 0.67 0.0 0 0 84.2406,158.2510 L 108.7306,200.6690 A 0.67 0.67 0.0 0 0 109.6458,200.9142 L 143.3342,181.4642 A 0.67 0.67 0.0 0 0 143.5794,180.5490 L 119.0894,138.1310 ZM 129.12,235.11 Q 132.47,237.29 135.63,235.43 Q 147.55,228.44 159.50,221.50 Q 162.29,219.88 162.99,217.51 Q 163.53,215.69 162.04,212.86 Q 156.88,203.08 151.02,193.68 A 0.53,0.51 58.8 0 0 150.32,193.50 L 116.60,212.99 A 0.58,0.57 -29.9 0 0 116.38,213.77 L 128.04,233.98 Q 128.43,234.65 129.12,235.11 ZM 291.47,487.27 Q 311.50,503.78 334.44,494.91 Q 338.34,493.40 346.14,488.90 Q 351.84,485.60 357.54,482.28 Q 369.68,475.22 373.73,471.13 Q 383.78,461.00 383.94,446.43 Q 384.05,436.10 379.12,427.30 Q 372.12,414.82 358.16,410.50 Q 349.79,407.91 341.68,409.23 Q 333.49,410.56 325.81,415.31 Q 315.54,421.67 287.25,437.40 Q 284.42,438.97 282.30,438.79 Q 279.27,438.53 277.34,436.36 Q 277.22,436.22 273.68,430.11 Q 217.96,333.80 161.98,237.03 A 0.61,0.59 59.6 0 0 161.16,236.80 L 148.94,243.84 A 0.87,0.86 60.1 0 0 148.63,245.03 Q 215.45,360.70 282.20,475.72 Q 284.71,480.05 286.23,481.95 Q 288.56,484.87 291.47,487.27 Z"/>
<path fill="#000000" d="M 512.00,291.06 Q 512.00,293.81 512.00,296.56 Q 510.41,320.48 495.69,337.19 Q 473.66,362.18 440.92,360.18 Q 430.64,359.55 421.43,356.12 Q 399.05,347.76 386.81,326.69 Q 380.88,316.48 378.93,304.44 Q 377.33,294.60 378.66,284.53 Q 381.39,263.79 395.44,248.44 Q 412.43,229.88 437.27,227.02 Q 447.18,225.88 457.17,227.74 Q 487.12,233.31 503.06,260.19 Q 511.11,273.74 512.00,291.06 ZM 497.92,293.48 A 52.93 52.93 0.0 0 0 444.99,240.55 A 52.93 52.93 0.0 0 0 392.06,293.48 A 52.93 52.93 0.0 0 0 444.99,346.41 A 52.93 52.93 0.0 0 0 497.92,293.48 Z"/>
<ellipse fill="#000000" cx="441.87" cy="258.04" rx="8.52" ry="7.21"/>
<ellipse fill="#000000" cx="0.00" cy="0.00" transform="translate(471.86,273.04) rotate(0.3)" rx="8.50" ry="7.20"/>
<ellipse fill="#000000" cx="0.00" cy="0.00" transform="translate(448.82,290.49) rotate(-0.2)" rx="8.50" ry="7.20"/>
<rect fill="#000000" x="-6.97" y="-12.93" transform="translate(96.74,373.93) rotate(-41.7)" width="13.94" height="25.86" rx="6.67"/>
<path fill="#000000" d="M 66.69,410.81 Q 53.85,397.30 44.04,383.06 Q 43.99,382.99 42.25,380.61 Q 40.66,378.42 40.00,376.50 Q 39.32,374.52 39.99,372.53 Q 40.55,370.86 42.19,369.49 Q 46.17,366.15 50.07,368.69 Q 51.78,369.80 54.68,373.98 Q 76.43,405.38 105.81,427.19 Q 156.50,464.82 219.51,471.69 Q 222.65,472.04 224.52,474.10 Q 226.24,476.01 226.22,478.93 Q 226.19,483.04 222.72,484.79 Q 220.59,485.86 216.64,485.44 Q 194.28,483.06 172.75,476.49 Q 111.22,457.69 66.69,410.81 Z"/>
<path fill="#000000" d="M 119.19,404.31 Q 115.72,401.66 115.83,398.17 Q 115.93,394.96 118.72,392.71 Q 122.72,389.49 127.69,393.31 Q 162.82,420.36 207.25,429.50 Q 210.16,430.10 211.70,432.45 Q 213.04,434.51 212.70,437.29 Q 212.14,441.79 208.03,442.89 Q 205.78,443.50 201.50,442.58 Q 156.66,432.97 119.19,404.31 Z"/>
<rect fill="#000000" x="-33.26" y="-7.00" transform="translate(325.75,443.90) rotate(-30.2)" width="66.52" height="14.00" rx="6.87"/>
<rect fill="#000000" x="-20.61" y="-6.99" transform="translate(337.99,465.07) rotate(-30.1)" width="41.22" height="13.98" rx="6.79"/>
</svg>
