<svg xmlns="http://www.w3.org/2000/svg" version="1.1" viewBox="0 0 512 512">
<path fill="#f4ec56" d="M 252.31,0.00 Q 256.19,0.00 260.06,0.00 Q 306.40,1.00 347.94,17.31 Q 414.99,43.64 458.97,100.78 Q 465.12,108.75 470.54,117.11 Q 510.21,178.25 512.00,252.31 Q 512.00,255.94 512.00,259.56 Q 509.90,342.07 461.88,407.36 Q 455.95,415.43 449.40,422.98 Q 407.17,471.69 347.44,494.94 Q 305.75,511.16 259.19,512.00 Q 255.94,512.00 252.69,512.00 Q 164.97,509.73 97.48,456.34 Q 89.60,450.11 82.30,443.33 Q 35.49,399.88 14.31,339.94 Q 1.01,302.28 0.00,260.44 Q 0.00,256.31 0.00,252.19 Q 2.60,158.62 62.94,88.69 Q 92.78,54.10 133.63,31.69 Q 188.96,1.34 252.31,0.00 Z"/>
</svg>