<?xml version="1.0" standalone="no"?>
<!DOCTYPE svg PUBLIC "-//W3C//DTD SVG 20010904//EN"
 "http://www.w3.org/TR/2001/REC-SVG-20010904/DTD/svg10.dtd">
<svg version="1.0" xmlns="http://www.w3.org/2000/svg"
 width="700.000000pt" height="700.000000pt" viewBox="0 0 700.000000 700.000000"
 preserveAspectRatio="xMidYMid meet">
<metadata>
Created by potrace 1.14, written by Peter Selinger 2001-2017
</metadata>
<g transform="translate(0.000000,700.000000) scale(0.100000,-0.100000)"
fill="#000000" stroke="none">
<path d="M3653 6478 c-15 -24 -30 -45 -34 -48 -26 -24 -106 -178 -144 -279
-56 -151 -48 -137 -150 -279 -67 -95 -92 -140 -129 -237 -56 -146 -62 -158
-102 -215 -45 -64 -54 -84 -60 -132 -8 -67 -24 -110 -55 -149 -34 -43 -46 -74
-53 -129 -4 -29 -1 -43 9 -46 22 -9 68 24 94 67 27 41 32 45 99 54 39 6 42 4
42 -17 0 -32 -11 -45 -43 -53 -17 -5 -29 -15 -31 -29 -3 -11 -7 -32 -10 -46
-2 -14 -8 -35 -11 -47 -5 -17 -3 -23 8 -23 20 0 26 -20 14 -47 -8 -18 -6 -27
6 -41 10 -10 17 -21 17 -24 0 -4 -22 -22 -49 -42 -42 -31 -53 -48 -81 -117
-27 -67 -42 -88 -87 -127 -30 -26 -60 -60 -67 -77 -42 -96 -45 -115 -22 -134
10 -8 21 -9 42 -1 26 10 31 8 55 -21 22 -27 28 -30 47 -20 11 6 41 11 66 11
42 0 48 3 72 40 20 30 33 40 54 40 38 0 42 -9 21 -39 -11 -15 -31 -52 -46 -84
-23 -47 -36 -62 -81 -88 -48 -27 -59 -40 -93 -107 -22 -43 -64 -106 -94 -140
-44 -50 -60 -79 -77 -135 -29 -96 -50 -135 -108 -201 -36 -41 -55 -75 -71
-126 -13 -39 -20 -77 -18 -84 3 -7 25 -18 50 -24 40 -11 51 -9 98 12 44 19 61
21 89 14 19 -6 40 -14 46 -19 17 -14 82 -18 122 -7 18 5 37 6 40 3 4 -4 -20
-32 -54 -63 -67 -64 -74 -76 -80 -147 -9 -101 -12 -107 -87 -171 -53 -44 -83
-80 -114 -135 l-42 -74 27 -3 c55 -7 110 10 177 54 65 42 72 44 148 46 l79 2
34 42 c32 39 37 41 116 52 45 7 84 16 87 20 3 4 31 29 63 55 37 32 68 49 90
51 35 4 100 14 136 21 23 4 23 3 21 -114 -1 -107 -11 -247 -23 -319 -3 -15 -8
-47 -11 -72 -9 -62 -59 -214 -93 -279 -29 -58 -39 -64 -130 -75 -26 -4 -65 -9
-87 -12 -51 -7 -254 -41 -320 -54 -27 -6 -61 -12 -75 -15 -20 -4 -119 -25
-140 -30 -52 -12 -68 -16 -85 -19 -136 -26 -692 -192 -790 -236 -11 -5 -66
-27 -122 -49 -192 -76 -512 -231 -664 -323 -322 -194 -595 -428 -763 -651 -56
-74 -176 -265 -176 -279 0 -10 45 18 75 45 11 10 32 26 48 35 15 9 27 20 27
24 0 4 5 8 11 8 6 0 17 7 25 15 29 29 390 263 524 340 74 43 234 128 355 189
208 105 247 123 355 168 25 10 53 24 64 29 34 19 393 158 538 208 277 95 515
165 838 246 189 47 591 133 705 150 22 3 83 12 135 21 52 8 112 17 135 20 49
5 111 14 145 19 14 2 52 7 85 10 33 3 71 7 85 9 14 2 59 7 100 11 41 3 98 8
125 10 393 35 1081 40 1340 10 17 -2 64 -6 105 -10 75 -6 134 -12 200 -21 19
-2 58 -7 85 -10 49 -5 265 -38 335 -51 85 -15 109 -11 38 7 -157 40 -221 55
-343 81 -77 16 -156 32 -175 35 -19 3 -42 7 -50 9 -8 2 -28 6 -45 9 -84 14
-101 17 -115 21 -8 2 -37 7 -65 10 -27 4 -59 8 -70 10 -115 15 -141 19 -147
21 -5 1 -17 2 -28 3 -31 2 -79 119 -96 235 -9 62 -13 241 -6 254 7 9 21 8 68
-7 32 -10 93 -27 134 -36 41 -10 95 -29 120 -43 93 -53 136 -71 175 -77 22 -3
46 -8 53 -10 19 -7 -5 34 -39 66 -25 23 -85 139 -73 139 3 0 13 -4 22 -9 9 -5
37 -11 61 -15 24 -3 52 -12 61 -21 31 -28 89 -46 111 -35 20 11 20 11 0 38
-32 43 -121 133 -183 185 -32 27 -58 53 -58 58 0 16 43 27 67 18 32 -12 53 -1
53 27 0 37 -29 113 -60 155 -15 21 -35 68 -44 105 -9 36 -28 82 -41 102 -13
19 -22 38 -20 42 10 16 74 8 100 -11 35 -29 42 -17 14 23 -28 40 -34 45 -82
81 -21 16 -54 53 -74 83 -20 30 -39 54 -42 54 -3 0 -17 9 -31 20 l-25 19 62
-4 c44 -3 71 -11 98 -30 36 -24 65 -32 65 -18 0 22 -117 215 -157 258 -58 63
-106 130 -139 191 -63 120 -213 324 -237 324 -22 0 -113 -116 -161 -206 -15
-28 -54 -76 -86 -107 -34 -33 -70 -81 -86 -114 -16 -31 -45 -76 -66 -100 -20
-24 -42 -61 -48 -83 -6 -22 -16 -43 -23 -47 -18 -12 -34 -35 -41 -60 -10 -33
24 -31 64 4 20 16 43 26 62 25 37 -1 48 -11 26 -23 -48 -27 -57 -60 -33 -120
4 -12 -4 -22 -29 -37 -20 -12 -43 -37 -52 -55 -9 -19 -30 -42 -48 -52 -38 -23
-49 -34 -64 -62 -19 -34 -15 -40 31 -48 96 -16 121 -15 149 5 29 21 58 26 58
11 0 -18 -53 -72 -90 -91 -20 -10 -45 -31 -55 -47 -10 -15 -40 -47 -66 -71
-26 -24 -53 -59 -59 -78 -14 -43 -23 -43 -38 -1 -6 18 -31 59 -55 92 -24 33
-64 94 -90 135 -26 41 -73 102 -104 135 -32 34 -77 83 -99 111 l-41 50 39 28
c37 26 40 27 63 12 32 -21 58 -20 83 2 l21 17 -19 121 c-17 107 -25 133 -70
221 -44 87 -54 116 -70 217 -22 137 -29 160 -81 266 -21 45 -39 82 -39 84 0 2
16 -4 35 -14 24 -12 44 -15 67 -11 30 7 37 3 77 -38 25 -27 45 -41 48 -34 2 7
-14 51 -36 98 -31 66 -58 105 -114 163 -53 56 -82 98 -107 152 -45 97 -64 125
-122 181 -55 52 -54 67 2 38 22 -11 63 -21 95 -23 52 -3 60 -6 104 -50 42 -41
111 -77 111 -57 0 10 -98 262 -110 283 -6 10 -10 22 -10 28 0 22 -83 183 -159
309 -45 74 -81 138 -81 142 0 4 -4 9 -10 11 -8 2 -86 178 -94 213 -2 6 -6 17
-9 25 -4 8 -22 56 -41 105 -19 50 -44 110 -55 135 -35 75 -215 373 -228 377
-6 3 -24 -15 -40 -39z m768 -3399 c26 -21 53 -30 95 -35 54 -7 64 -12 115 -61
33 -31 68 -55 87 -59 18 -4 32 -9 32 -11 0 -2 -12 -25 -27 -50 -32 -55 -22
-67 52 -58 63 7 75 7 160 -2 l70 -8 -42 -28 c-33 -23 -43 -37 -48 -67 -7 -39
-24 -59 -87 -100 -35 -24 -72 -72 -62 -82 8 -9 93 10 141 32 25 11 65 20 90
20 28 0 54 7 71 20 15 11 48 21 74 23 26 3 67 16 90 30 29 17 67 28 112 32
l68 7 -3 -118 c-3 -112 -25 -231 -58 -318 l-11 -28 -88 6 c-48 3 -136 9 -197
13 -145 10 -919 10 -1065 1 l-115 -8 -32 78 c-52 127 -70 199 -88 352 -16 138
-23 369 -11 389 4 6 28 -1 64 -19 31 -15 120 -51 197 -79 77 -29 149 -56 160
-60 11 -5 60 -43 108 -85 49 -42 98 -81 109 -87 30 -16 202 -69 207 -64 9 9
-35 92 -82 154 -37 49 -54 83 -68 140 -11 42 -33 98 -49 124 -31 51 -28 51 31
6z"/>
</g>
</svg>
