<?xml version="1.0" standalone="no"?>
<!DOCTYPE svg PUBLIC "-//W3C//DTD SVG 20010904//EN"
 "http://www.w3.org/TR/2001/REC-SVG-20010904/DTD/svg10.dtd">
<svg version="1.0" xmlns="http://www.w3.org/2000/svg"
 width="500.000000pt" height="500.000000pt" viewBox="0 0 500.000000 500.000000"
 preserveAspectRatio="xMidYMid meet">
<metadata>
Created by potrace 1.14, written by Peter Selinger 2001-2017
</metadata>
<g transform="translate(0.000000,500.000000) scale(0.100000,-0.100000)"
fill="#000000" stroke="none">
<path d="M2035 4364 c-150 -21 -216 -37 -352 -85 -295 -104 -547 -294 -707
-532 -78 -116 -150 -288 -170 -407 -24 -139 -27 -354 -7 -451 6 -30 14 -69 17
-85 16 -88 60 -208 121 -329 131 -258 387 -478 688 -590 55 -20 102 -39 104
-41 2 -2 5 -27 7 -56 8 -161 33 -277 91 -423 20 -49 44 -102 54 -117 11 -14
19 -29 19 -32 0 -7 47 -80 70 -110 129 -163 262 -272 451 -367 131 -66 338
-128 482 -144 26 -3 68 -7 95 -11 99 -11 423 -4 521 11 14 3 54 7 90 10 36 4
73 8 81 10 8 2 38 7 65 11 28 3 59 8 70 11 11 2 33 6 48 8 88 13 249 50 263
60 15 11 15 20 2 116 -11 76 -15 175 -13 364 2 238 4 264 22 306 17 37 28 49
57 59 19 6 40 9 45 6 13 -9 41 22 35 38 -4 10 -74 13 -357 12 -194 -1 -418 3
-499 7 -82 4 -148 4 -149 0 0 -4 -2 -16 -4 -25 -5 -26 8 -30 104 -34 205 -9
275 -48 296 -169 4 -22 9 -49 11 -60 6 -27 5 -324 0 -355 -3 -14 -7 -41 -10
-60 -18 -118 -67 -189 -156 -229 -114 -50 -365 -47 -536 8 -145 47 -264 121
-380 236 -184 183 -308 440 -360 747 -10 59 -16 109 -13 112 2 2 54 7 114 10
61 3 121 8 135 10 14 3 49 7 79 10 69 8 229 48 349 87 64 22 96 37 104 52 14
25 13 21 22 102 4 33 9 74 11 90 2 17 7 55 10 85 12 117 15 146 20 175 2 17 7
61 11 98 6 67 6 69 -16 65 -16 -2 -35 -28 -74 -104 -126 -244 -270 -411 -436
-507 -64 -37 -188 -75 -270 -83 l-70 -6 -1 33 c-4 155 6 317 27 424 16 82 47
194 63 230 5 11 17 38 27 60 32 73 105 178 168 240 100 100 240 169 391 194
61 9 289 8 335 -3 14 -3 48 -11 75 -17 106 -25 246 -91 340 -162 66 -50 198
-188 240 -252 42 -63 45 -68 89 -152 15 -28 33 -57 40 -62 21 -18 38 12 32 56
-3 21 -7 65 -10 98 -3 33 -8 87 -11 120 -3 33 -7 80 -10 105 -2 25 -7 73 -10
107 -10 97 -11 106 -19 131 -4 12 -19 28 -34 36 -62 32 -261 80 -382 92 -36 3
-87 10 -114 14 -55 8 -404 6 -451 -4 -16 -3 -46 -9 -65 -12 -19 -3 -44 -8 -55
-10 -11 -2 -32 -5 -46 -8 -54 -9 -179 -47 -262 -80 -310 -122 -552 -331 -700
-607 -40 -73 -92 -206 -103 -262 -2 -10 -5 -26 -8 -35 -3 -9 -8 -35 -12 -57
-3 -22 -7 -41 -8 -42 -5 -6 -127 119 -167 172 -142 187 -242 449 -274 720 -3
28 -8 66 -10 85 -6 44 -7 327 -1 360 3 14 7 50 10 80 9 78 13 97 42 196 87
302 264 507 504 583 94 30 113 32 241 36 293 8 530 -103 729 -340 46 -55 123
-178 157 -252 26 -56 38 -73 54 -73 20 0 21 4 15 68 -4 37 -9 94 -12 127 -2
33 -6 83 -9 110 -2 28 -7 86 -10 130 -14 182 -20 199 -82 226 -59 25 -173 57
-233 65 -25 3 -48 8 -51 10 -3 1 -30 6 -59 9 -30 4 -58 9 -63 12 -20 12 -404
10 -492 -3z"/>
</g>
</svg>
